<svg xmlns="http://www.w3.org/2000/svg" width="1435" height="371" viewBox="0 0 1435 371" fill="none">
<path d="M721.008 146.432H743.472V153.776H721.008V146.432ZM736.632 182H727.848V135.344H736.632V182ZM756.349 182H747.565V128.432H756.421V151.04C757.525 149.312 759.061 147.944 761.029 146.936C763.045 145.88 765.349 145.352 767.941 145.352C772.309 145.352 775.621 146.672 777.877 149.312C780.181 151.952 781.333 155.552 781.333 160.112V182H772.549V162.2C772.549 160.184 772.237 158.528 771.613 157.232C770.989 155.936 770.125 154.976 769.021 154.352C767.917 153.68 766.621 153.344 765.133 153.344C763.309 153.344 761.725 153.752 760.381 154.568C759.085 155.336 758.077 156.416 757.357 157.808C756.685 159.2 756.349 160.784 756.349 162.56V182ZM804.435 182.936C800.931 182.936 797.811 182.144 795.075 180.56C792.387 178.928 790.275 176.72 788.739 173.936C787.203 171.104 786.435 167.864 786.435 164.216C786.435 160.52 787.179 157.256 788.667 154.424C790.155 151.592 792.243 149.384 794.931 147.8C797.619 146.168 800.691 145.352 804.147 145.352C807.747 145.352 810.843 146.12 813.435 147.656C816.027 149.144 818.019 151.232 819.411 153.92C820.851 156.608 821.571 159.824 821.571 163.568V166.232L791.043 166.304L791.187 160.688H812.859C812.859 158.24 812.067 156.272 810.483 154.784C808.947 153.296 806.859 152.552 804.219 152.552C802.155 152.552 800.403 152.984 798.963 153.848C797.571 154.712 796.515 156.008 795.795 157.736C795.075 159.464 794.715 161.576 794.715 164.072C794.715 167.912 795.531 170.816 797.163 172.784C798.843 174.752 801.315 175.736 804.579 175.736C806.979 175.736 808.947 175.28 810.483 174.368C812.067 173.456 813.099 172.16 813.579 170.48H821.715C820.947 174.368 819.027 177.416 815.955 179.624C812.931 181.832 809.091 182.936 804.435 182.936ZM841.6 146.432H863.92V153.776H841.6V146.432ZM863.992 128.792V136.28C863.512 136.28 863.008 136.28 862.48 136.28C862 136.28 861.496 136.28 860.968 136.28C858.76 136.28 857.272 136.808 856.504 137.864C855.784 138.92 855.424 140.336 855.424 142.112V182H846.712V142.112C846.712 138.848 847.24 136.232 848.296 134.264C849.352 132.248 850.84 130.784 852.76 129.872C854.68 128.912 856.912 128.432 859.456 128.432C860.176 128.432 860.92 128.456 861.688 128.504C862.504 128.552 863.272 128.648 863.992 128.792ZM892.206 146.432H900.99V182H892.854L892.206 177.248C891.15 178.928 889.566 180.296 887.454 181.352C885.342 182.408 883.086 182.936 880.686 182.936C876.606 182.936 873.414 181.64 871.11 179.048C868.806 176.456 867.654 173 867.654 168.68V146.432H876.438V165.584C876.438 168.944 877.086 171.368 878.382 172.856C879.678 174.344 881.55 175.088 883.998 175.088C886.782 175.088 888.846 174.272 890.19 172.64C891.534 170.96 892.206 168.44 892.206 165.08V146.432ZM905.095 146.432H927.559V153.776H905.095V146.432ZM920.719 182H911.935V135.344H920.719V182ZM955.771 146.432H964.555V182H956.419L955.771 177.248C954.715 178.928 953.131 180.296 951.019 181.352C948.907 182.408 946.651 182.936 944.251 182.936C940.171 182.936 936.979 181.64 934.675 179.048C932.371 176.456 931.219 173 931.219 168.68V146.432H940.003V165.584C940.003 168.944 940.651 171.368 941.947 172.856C943.243 174.344 945.115 175.088 947.563 175.088C950.347 175.088 952.411 174.272 953.755 172.64C955.099 170.96 955.771 168.44 955.771 165.08V146.432ZM994.508 146.288V154.424H991.268C988.052 154.424 985.532 155.288 983.708 157.016C981.884 158.696 980.972 161.264 980.972 164.72V182H972.188V146.504H980.468L981.188 153.848H980.324C980.804 151.496 981.932 149.576 983.708 148.088C985.484 146.6 987.788 145.856 990.62 145.856C991.244 145.856 991.868 145.88 992.492 145.928C993.116 145.976 993.788 146.096 994.508 146.288ZM1013.73 182.936C1010.23 182.936 1007.11 182.144 1004.37 180.56C1001.68 178.928 999.57 176.72 998.034 173.936C996.498 171.104 995.73 167.864 995.73 164.216C995.73 160.52 996.474 157.256 997.962 154.424C999.45 151.592 1001.54 149.384 1004.23 147.8C1006.91 146.168 1009.99 145.352 1013.44 145.352C1017.04 145.352 1020.14 146.12 1022.73 147.656C1025.32 149.144 1027.31 151.232 1028.71 153.92C1030.15 156.608 1030.87 159.824 1030.87 163.568V166.232L1000.34 166.304L1000.48 160.688H1022.15C1022.15 158.24 1021.36 156.272 1019.78 154.784C1018.24 153.296 1016.15 152.552 1013.51 152.552C1011.45 152.552 1009.7 152.984 1008.26 153.848C1006.87 154.712 1005.81 156.008 1005.09 157.736C1004.37 159.464 1004.01 161.576 1004.01 164.072C1004.01 167.912 1004.83 170.816 1006.46 172.784C1008.14 174.752 1010.61 175.736 1013.87 175.736C1016.27 175.736 1018.24 175.28 1019.78 174.368C1021.36 173.456 1022.39 172.16 1022.87 170.48H1031.01C1030.24 174.368 1028.32 177.416 1025.25 179.624C1022.23 181.832 1018.39 182.936 1013.73 182.936ZM1063.21 182H1054.42V146.432H1062.56L1063.28 151.04C1064.38 149.264 1065.94 147.872 1067.96 146.864C1070.02 145.856 1072.25 145.352 1074.65 145.352C1079.12 145.352 1082.48 146.672 1084.73 149.312C1087.04 151.952 1088.19 155.552 1088.19 160.112V182H1079.41V162.2C1079.41 159.224 1078.73 157.016 1077.39 155.576C1076.05 154.088 1074.22 153.344 1071.92 153.344C1069.18 153.344 1067.05 154.208 1065.51 155.936C1063.97 157.664 1063.21 159.968 1063.21 162.848V182ZM1111.29 182.936C1107.79 182.936 1104.67 182.144 1101.93 180.56C1099.25 178.928 1097.13 176.72 1095.6 173.936C1094.06 171.104 1093.29 167.864 1093.29 164.216C1093.29 160.52 1094.04 157.256 1095.53 154.424C1097.01 151.592 1099.1 149.384 1101.79 147.8C1104.48 146.168 1107.55 145.352 1111.01 145.352C1114.61 145.352 1117.7 146.12 1120.29 147.656C1122.89 149.144 1124.88 151.232 1126.27 153.92C1127.71 156.608 1128.43 159.824 1128.43 163.568V166.232L1097.9 166.304L1098.05 160.688H1119.72C1119.72 158.24 1118.93 156.272 1117.34 154.784C1115.81 153.296 1113.72 152.552 1111.08 152.552C1109.01 152.552 1107.26 152.984 1105.82 153.848C1104.43 154.712 1103.37 156.008 1102.65 157.736C1101.93 159.464 1101.57 161.576 1101.57 164.072C1101.57 167.912 1102.39 170.816 1104.02 172.784C1105.7 174.752 1108.17 175.736 1111.44 175.736C1113.84 175.736 1115.81 175.28 1117.34 174.368C1118.93 173.456 1119.96 172.16 1120.44 170.48H1128.57C1127.81 174.368 1125.89 177.416 1122.81 179.624C1119.79 181.832 1115.95 182.936 1111.29 182.936ZM1149.93 182.936C1146.43 182.936 1143.31 182.144 1140.57 180.56C1137.88 178.928 1135.77 176.72 1134.24 173.936C1132.7 171.104 1131.93 167.864 1131.93 164.216C1131.93 160.52 1132.68 157.256 1134.16 154.424C1135.65 151.592 1137.74 149.384 1140.43 147.8C1143.12 146.168 1146.19 145.352 1149.64 145.352C1153.24 145.352 1156.34 146.12 1158.93 147.656C1161.52 149.144 1163.52 151.232 1164.91 153.92C1166.35 156.608 1167.07 159.824 1167.07 163.568V166.232L1136.54 166.304L1136.68 160.688H1158.36C1158.36 158.24 1157.56 156.272 1155.98 154.784C1154.44 153.296 1152.36 152.552 1149.72 152.552C1147.65 152.552 1145.9 152.984 1144.46 153.848C1143.07 154.712 1142.01 156.008 1141.29 157.736C1140.57 159.464 1140.21 161.576 1140.21 164.072C1140.21 167.912 1141.03 170.816 1142.66 172.784C1144.34 174.752 1146.81 175.736 1150.08 175.736C1152.48 175.736 1154.44 175.28 1155.98 174.368C1157.56 173.456 1158.6 172.16 1159.08 170.48H1167.21C1166.44 174.368 1164.52 177.416 1161.45 179.624C1158.43 181.832 1154.59 182.936 1149.93 182.936ZM1187.27 182.936C1183.82 182.936 1180.84 182.168 1178.35 180.632C1175.9 179.048 1173.98 176.864 1172.59 174.08C1171.24 171.296 1170.57 168.056 1170.57 164.36C1170.57 160.664 1171.24 157.4 1172.59 154.568C1173.98 151.688 1175.97 149.432 1178.56 147.8C1181.15 146.168 1184.23 145.352 1187.78 145.352C1190.27 145.352 1192.55 145.856 1194.62 146.864C1196.68 147.824 1198.27 149.192 1199.37 150.968V128.432H1208.08V182H1200.02L1199.44 176.456C1198.39 178.472 1196.75 180.056 1194.55 181.208C1192.39 182.36 1189.96 182.936 1187.27 182.936ZM1189.22 174.872C1191.28 174.872 1193.06 174.44 1194.55 173.576C1196.03 172.664 1197.19 171.392 1198 169.76C1198.87 168.08 1199.3 166.184 1199.3 164.072C1199.3 161.912 1198.87 160.04 1198 158.456C1197.19 156.824 1196.03 155.552 1194.55 154.64C1193.06 153.68 1191.28 153.2 1189.22 153.2C1187.2 153.2 1185.45 153.68 1183.96 154.64C1182.47 155.552 1181.32 156.824 1180.51 158.456C1179.74 160.088 1179.35 161.96 1179.35 164.072C1179.35 166.184 1179.74 168.056 1180.51 169.688C1181.32 171.32 1182.47 172.592 1183.96 173.504C1185.45 174.416 1187.2 174.872 1189.22 174.872ZM1213.06 171.2H1221.41C1221.46 172.736 1222.04 173.96 1223.14 174.872C1224.24 175.784 1225.78 176.24 1227.75 176.24C1229.86 176.24 1231.44 175.856 1232.5 175.088C1233.6 174.32 1234.16 173.288 1234.16 171.992C1234.16 171.128 1233.87 170.36 1233.29 169.688C1232.72 169.016 1231.64 168.512 1230.05 168.176L1223.64 166.664C1220.43 165.944 1218.03 164.792 1216.44 163.208C1214.91 161.576 1214.14 159.344 1214.14 156.512C1214.14 154.208 1214.74 152.216 1215.94 150.536C1217.19 148.856 1218.87 147.584 1220.98 146.72C1223.09 145.808 1225.52 145.352 1228.25 145.352C1230.89 145.352 1233.22 145.832 1235.24 146.792C1237.25 147.752 1238.81 149.096 1239.92 150.824C1241.07 152.552 1241.67 154.568 1241.72 156.872H1233.36C1233.36 155.336 1232.88 154.136 1231.92 153.272C1230.96 152.36 1229.62 151.904 1227.89 151.904C1226.16 151.904 1224.82 152.288 1223.86 153.056C1222.9 153.824 1222.42 154.856 1222.42 156.152C1222.42 158.12 1223.96 159.464 1227.03 160.184L1233.44 161.696C1236.41 162.368 1238.64 163.448 1240.13 164.936C1241.67 166.424 1242.44 168.536 1242.44 171.272C1242.44 173.672 1241.81 175.76 1240.56 177.536C1239.32 179.264 1237.56 180.608 1235.31 181.568C1233.05 182.48 1230.46 182.936 1227.53 182.936C1223.12 182.936 1219.59 181.856 1216.95 179.696C1214.36 177.536 1213.06 174.704 1213.06 171.2Z" fill="white"/>
<path d="M1262.12 146.432H1284.44V153.776H1262.12V146.432ZM1284.51 128.792V136.28C1284.03 136.28 1283.53 136.28 1283 136.28C1282.52 136.28 1282.02 136.28 1281.49 136.28C1279.28 136.28 1277.79 136.808 1277.03 137.864C1276.31 138.92 1275.95 140.336 1275.95 142.112V182H1267.23V142.112C1267.23 138.848 1267.76 136.232 1268.82 134.264C1269.87 132.248 1271.36 130.784 1273.28 129.872C1275.2 128.912 1277.43 128.432 1279.98 128.432C1280.7 128.432 1281.44 128.456 1282.21 128.504C1283.03 128.552 1283.79 128.648 1284.51 128.792ZM1285.47 164.144C1285.47 160.448 1286.28 157.208 1287.91 154.424C1289.55 151.592 1291.8 149.384 1294.68 147.8C1297.56 146.216 1300.83 145.424 1304.47 145.424C1308.17 145.424 1311.43 146.216 1314.27 147.8C1317.15 149.384 1319.4 151.592 1321.03 154.424C1322.67 157.208 1323.48 160.448 1323.48 164.144C1323.48 167.84 1322.67 171.104 1321.03 173.936C1319.4 176.72 1317.15 178.904 1314.27 180.488C1311.43 182.072 1308.17 182.864 1304.47 182.864C1300.83 182.864 1297.56 182.072 1294.68 180.488C1291.8 178.904 1289.55 176.72 1287.91 173.936C1286.28 171.104 1285.47 167.84 1285.47 164.144ZM1294.25 164.144C1294.25 166.304 1294.68 168.2 1295.55 169.832C1296.46 171.464 1297.66 172.736 1299.15 173.648C1300.68 174.56 1302.46 175.016 1304.47 175.016C1306.49 175.016 1308.27 174.56 1309.8 173.648C1311.34 172.736 1312.54 171.464 1313.4 169.832C1314.27 168.2 1314.7 166.304 1314.7 164.144C1314.7 161.936 1314.27 160.04 1313.4 158.456C1312.54 156.824 1311.34 155.552 1309.8 154.64C1308.27 153.728 1306.49 153.272 1304.47 153.272C1302.46 153.272 1300.68 153.728 1299.15 154.64C1297.66 155.552 1296.46 156.824 1295.55 158.456C1294.68 160.04 1294.25 161.936 1294.25 164.144ZM1351.32 146.288V154.424H1348.08C1344.87 154.424 1342.35 155.288 1340.52 157.016C1338.7 158.696 1337.79 161.264 1337.79 164.72V182H1329V146.504H1337.28L1338 153.848H1337.14C1337.62 151.496 1338.75 149.576 1340.52 148.088C1342.3 146.6 1344.6 145.856 1347.44 145.856C1348.06 145.856 1348.68 145.88 1349.31 145.928C1349.93 145.976 1350.6 146.096 1351.32 146.288ZM1364.61 182H1355.83V146.432H1363.89L1364.97 152.768L1363.97 151.904C1364.69 150.176 1366.01 148.664 1367.93 147.368C1369.85 146.024 1372.25 145.352 1375.13 145.352C1378.25 145.352 1380.79 146.168 1382.76 147.8C1384.77 149.432 1386.17 151.592 1386.93 154.28H1385.49C1386.02 151.592 1387.37 149.432 1389.53 147.8C1391.73 146.168 1394.4 145.352 1397.52 145.352C1401.84 145.352 1405.15 146.576 1407.45 149.024C1409.76 151.424 1410.91 154.664 1410.91 158.744V182H1402.2V161.048C1402.2 158.504 1401.55 156.584 1400.25 155.288C1399.01 153.944 1397.33 153.272 1395.21 153.272C1393.87 153.272 1392.62 153.584 1391.47 154.208C1390.37 154.832 1389.48 155.768 1388.81 157.016C1388.13 158.264 1387.8 159.872 1387.8 161.84V182H1379.01V160.976C1379.01 158.48 1378.39 156.584 1377.14 155.288C1375.89 153.992 1374.24 153.344 1372.17 153.344C1370.78 153.344 1369.51 153.656 1368.36 154.28C1367.21 154.856 1366.29 155.792 1365.62 157.088C1364.95 158.336 1364.61 159.92 1364.61 161.84V182ZM1424 182.864C1422.41 182.864 1421.04 182.312 1419.89 181.208C1418.74 180.104 1418.16 178.76 1418.16 177.176C1418.16 175.592 1418.74 174.248 1419.89 173.144C1421.04 171.992 1422.41 171.416 1424 171.416C1425.58 171.416 1426.95 171.992 1428.1 173.144C1429.25 174.248 1429.83 175.592 1429.83 177.176C1429.83 178.76 1429.25 180.104 1428.1 181.208C1426.95 182.312 1425.58 182.864 1424 182.864Z" fill="#39FF14"/>
<path d="M726.776 240L720.152 217.664H723L726.168 228.832L728.568 237.28H728.728L731.128 228.832L734.296 217.664H737.048L730.424 240H726.776ZM748.556 240V237.856H754.124V219.808H748.556V217.664H762.38V219.808H756.812V237.856H762.38V240H748.556ZM782.271 240.384C780.266 240.384 778.623 240.021 777.343 239.296C776.063 238.549 775.007 237.6 774.175 236.448L776.127 234.848C777.002 235.936 777.919 236.747 778.879 237.28C779.86 237.813 781.023 238.08 782.367 238.08C783.988 238.08 785.226 237.707 786.079 236.96C786.932 236.213 787.359 235.168 787.359 233.824C787.359 232.736 787.05 231.893 786.431 231.296C785.812 230.677 784.735 230.24 783.199 229.984L780.703 229.568C779.615 229.376 778.698 229.088 777.951 228.704C777.226 228.32 776.639 227.861 776.191 227.328C775.743 226.773 775.423 226.176 775.231 225.536C775.039 224.875 774.943 224.192 774.943 223.488C774.943 221.44 775.615 219.893 776.959 218.848C778.303 217.803 780.116 217.28 782.399 217.28C784.191 217.28 785.695 217.579 786.911 218.176C788.148 218.773 789.14 219.616 789.887 220.704L787.999 222.336C787.38 221.525 786.634 220.864 785.759 220.352C784.884 219.84 783.754 219.584 782.367 219.584C780.852 219.584 779.69 219.904 778.879 220.544C778.068 221.184 777.663 222.144 777.663 223.424C777.663 224.427 777.962 225.248 778.559 225.888C779.178 226.507 780.276 226.955 781.855 227.232L784.255 227.648C785.343 227.84 786.26 228.128 787.007 228.512C787.754 228.896 788.351 229.355 788.799 229.888C789.268 230.421 789.599 231.019 789.791 231.68C789.983 232.341 790.079 233.035 790.079 233.76C790.079 235.829 789.396 237.451 788.031 238.624C786.687 239.797 784.767 240.384 782.271 240.384ZM802.291 240V237.856H807.859V219.808H802.291V217.664H816.115V219.808H810.547V237.856H816.115V240H802.291ZM836.07 240.384C834.705 240.384 833.531 240.128 832.55 239.616C831.569 239.083 830.758 238.325 830.118 237.344C829.478 236.363 829.009 235.157 828.71 233.728C828.411 232.299 828.262 230.667 828.262 228.832C828.262 227.019 828.411 225.397 828.71 223.968C829.009 222.517 829.478 221.301 830.118 220.32C830.758 219.339 831.569 218.592 832.55 218.08C833.531 217.547 834.705 217.28 836.07 217.28C837.435 217.28 838.609 217.547 839.59 218.08C840.571 218.592 841.382 219.339 842.022 220.32C842.662 221.301 843.131 222.517 843.43 223.968C843.729 225.397 843.878 227.019 843.878 228.832C843.878 230.667 843.729 232.299 843.43 233.728C843.131 235.157 842.662 236.363 842.022 237.344C841.382 238.325 840.571 239.083 839.59 239.616C838.609 240.128 837.435 240.384 836.07 240.384ZM836.07 238.048C836.966 238.048 837.723 237.877 838.342 237.536C838.961 237.173 839.473 236.672 839.878 236.032C840.283 235.392 840.571 234.624 840.742 233.728C840.934 232.811 841.03 231.787 841.03 230.656V227.008C841.03 225.899 840.934 224.885 840.742 223.968C840.571 223.051 840.283 222.272 839.878 221.632C839.473 220.992 838.961 220.501 838.342 220.16C837.723 219.797 836.966 219.616 836.07 219.616C835.174 219.616 834.417 219.797 833.798 220.16C833.179 220.501 832.667 220.992 832.262 221.632C831.857 222.272 831.558 223.051 831.366 223.968C831.195 224.885 831.11 225.899 831.11 227.008V230.656C831.11 231.787 831.195 232.811 831.366 233.728C831.558 234.624 831.857 235.392 832.262 236.032C832.667 236.672 833.179 237.173 833.798 237.536C834.417 237.877 835.174 238.048 836.07 238.048ZM858.553 221.184H858.329V240H855.897V217.664H859.705L867.321 236.48H867.545V217.664H869.977V240H866.169L858.553 221.184ZM912.288 221.184H912.064V240H909.632V217.664H913.44L921.056 236.48H921.28V217.664H923.712V240H919.904L912.288 221.184ZM936.82 240V217.664H950.58V220H939.508V227.52H950.196V229.856H939.508V237.664H950.58V240H936.82ZM963.687 240V217.664H977.447V220H966.375V227.52H977.063V229.856H966.375V237.664H977.447V240H963.687ZM990.715 217.664H996.955C999.686 217.664 1001.72 218.603 1003.07 220.48C1004.41 222.357 1005.08 225.141 1005.08 228.832C1005.08 232.523 1004.41 235.307 1003.07 237.184C1001.72 239.061 999.686 240 996.955 240H990.715V217.664ZM996.827 237.664C998.619 237.664 999.963 237.045 1000.86 235.808C1001.78 234.571 1002.23 232.821 1002.23 230.56V227.104C1002.23 224.843 1001.78 223.093 1000.86 221.856C999.963 220.619 998.619 220 996.827 220H993.403V237.664H996.827ZM1024.08 240.384C1022.07 240.384 1020.43 240.021 1019.15 239.296C1017.87 238.549 1016.81 237.6 1015.98 236.448L1017.93 234.848C1018.81 235.936 1019.73 236.747 1020.69 237.28C1021.67 237.813 1022.83 238.08 1024.17 238.08C1025.8 238.08 1027.03 237.707 1027.89 236.96C1028.74 236.213 1029.17 235.168 1029.17 233.824C1029.17 232.736 1028.86 231.893 1028.24 231.296C1027.62 230.677 1026.54 230.24 1025.01 229.984L1022.51 229.568C1021.42 229.376 1020.51 229.088 1019.76 228.704C1019.03 228.32 1018.45 227.861 1018 227.328C1017.55 226.773 1017.23 226.176 1017.04 225.536C1016.85 224.875 1016.75 224.192 1016.75 223.488C1016.75 221.44 1017.42 219.893 1018.77 218.848C1020.11 217.803 1021.92 217.28 1024.21 217.28C1026 217.28 1027.5 217.579 1028.72 218.176C1029.96 218.773 1030.95 219.616 1031.69 220.704L1029.81 222.336C1029.19 221.525 1028.44 220.864 1027.57 220.352C1026.69 219.84 1025.56 219.584 1024.17 219.584C1022.66 219.584 1021.5 219.904 1020.69 220.544C1019.88 221.184 1019.47 222.144 1019.47 223.424C1019.47 224.427 1019.77 225.248 1020.37 225.888C1020.99 226.507 1022.08 226.955 1023.66 227.232L1026.06 227.648C1027.15 227.84 1028.07 228.128 1028.81 228.512C1029.56 228.896 1030.16 229.355 1030.61 229.888C1031.08 230.421 1031.41 231.019 1031.6 231.68C1031.79 232.341 1031.89 233.035 1031.89 233.76C1031.89 235.829 1031.2 237.451 1029.84 238.624C1028.49 239.797 1026.57 240.384 1024.08 240.384ZM1077.81 240.384C1075.81 240.384 1074.17 240.021 1072.89 239.296C1071.61 238.549 1070.55 237.6 1069.72 236.448L1071.67 234.848C1072.54 235.936 1073.46 236.747 1074.42 237.28C1075.4 237.813 1076.57 238.08 1077.91 238.08C1079.53 238.08 1080.77 237.707 1081.62 236.96C1082.47 236.213 1082.9 235.168 1082.9 233.824C1082.9 232.736 1082.59 231.893 1081.97 231.296C1081.35 230.677 1080.28 230.24 1078.74 229.984L1076.25 229.568C1075.16 229.376 1074.24 229.088 1073.49 228.704C1072.77 228.32 1072.18 227.861 1071.73 227.328C1071.29 226.773 1070.97 226.176 1070.77 225.536C1070.58 224.875 1070.49 224.192 1070.49 223.488C1070.49 221.44 1071.16 219.893 1072.5 218.848C1073.85 217.803 1075.66 217.28 1077.94 217.28C1079.73 217.28 1081.24 217.579 1082.45 218.176C1083.69 218.773 1084.68 219.616 1085.43 220.704L1083.54 222.336C1082.92 221.525 1082.18 220.864 1081.3 220.352C1080.43 219.84 1079.3 219.584 1077.91 219.584C1076.39 219.584 1075.23 219.904 1074.42 220.544C1073.61 221.184 1073.21 222.144 1073.21 223.424C1073.21 224.427 1073.5 225.248 1074.1 225.888C1074.72 226.507 1075.82 226.955 1077.4 227.232L1079.8 227.648C1080.89 227.84 1081.8 228.128 1082.55 228.512C1083.3 228.896 1083.89 229.355 1084.34 229.888C1084.81 230.421 1085.14 231.019 1085.33 231.68C1085.53 232.341 1085.62 233.035 1085.62 233.76C1085.62 235.829 1084.94 237.451 1083.57 238.624C1082.23 239.797 1080.31 240.384 1077.81 240.384ZM1106.09 220V240H1103.4V220H1095.94V217.664H1113.54V220H1106.09ZM1127.58 240H1124.89V217.664H1133.02C1135.09 217.664 1136.67 218.229 1137.76 219.36C1138.84 220.491 1139.39 222.069 1139.39 224.096C1139.39 225.909 1138.92 227.36 1137.98 228.448C1137.04 229.536 1135.68 230.165 1133.88 230.336L1139.58 240H1136.57L1131.13 230.464H1127.58V240ZM1132.96 228.192C1134.09 228.192 1134.96 227.915 1135.58 227.36C1136.22 226.784 1136.54 225.973 1136.54 224.928V223.264C1136.54 222.219 1136.22 221.419 1135.58 220.864C1134.96 220.288 1134.09 220 1132.96 220H1127.58V228.192H1132.96ZM1154.13 217.664V231.072C1154.13 232.16 1154.16 233.131 1154.22 233.984C1154.29 234.837 1154.46 235.573 1154.74 236.192C1155.01 236.789 1155.44 237.248 1156.02 237.568C1156.61 237.888 1157.43 238.048 1158.48 238.048C1159.53 238.048 1160.34 237.888 1160.91 237.568C1161.51 237.248 1161.95 236.789 1162.22 236.192C1162.5 235.573 1162.67 234.837 1162.74 233.984C1162.8 233.131 1162.83 232.16 1162.83 231.072V217.664H1165.52V230.432C1165.52 232.096 1165.43 233.547 1165.26 234.784C1165.11 236.021 1164.78 237.056 1164.27 237.888C1163.78 238.72 1163.07 239.349 1162.13 239.776C1161.21 240.181 1159.99 240.384 1158.48 240.384C1156.97 240.384 1155.74 240.181 1154.8 239.776C1153.88 239.349 1153.17 238.72 1152.66 237.888C1152.17 237.056 1151.83 236.021 1151.66 234.784C1151.51 233.547 1151.44 232.096 1151.44 230.432V217.664H1154.13ZM1186.08 240.384C1183.35 240.384 1181.32 239.392 1179.97 237.408C1178.65 235.424 1177.99 232.565 1177.99 228.832C1177.99 225.099 1178.65 222.24 1179.97 220.256C1181.32 218.272 1183.35 217.28 1186.08 217.28C1187.11 217.28 1187.99 217.419 1188.74 217.696C1189.49 217.973 1190.13 218.347 1190.66 218.816C1191.19 219.285 1191.64 219.819 1192 220.416C1192.37 220.992 1192.69 221.579 1192.96 222.176L1190.66 223.232C1190.47 222.741 1190.24 222.283 1189.99 221.856C1189.73 221.408 1189.42 221.024 1189.06 220.704C1188.72 220.363 1188.3 220.096 1187.81 219.904C1187.34 219.712 1186.77 219.616 1186.08 219.616C1184.31 219.616 1182.99 220.288 1182.12 221.632C1181.26 222.976 1180.84 224.768 1180.84 227.008V230.656C1180.84 232.896 1181.26 234.688 1182.12 236.032C1182.99 237.376 1184.31 238.048 1186.08 238.048C1186.77 238.048 1187.34 237.952 1187.81 237.76C1188.3 237.568 1188.72 237.312 1189.06 236.992C1189.42 236.651 1189.73 236.267 1189.99 235.84C1190.24 235.392 1190.47 234.923 1190.66 234.432L1192.96 235.488C1192.69 236.107 1192.37 236.704 1192 237.28C1191.64 237.856 1191.19 238.379 1190.66 238.848C1190.13 239.317 1189.49 239.691 1188.74 239.968C1187.99 240.245 1187.11 240.384 1186.08 240.384ZM1213.56 220V240H1210.87V220H1203.41V217.664H1221.01V220H1213.56ZM1234.73 217.664V231.072C1234.73 232.16 1234.76 233.131 1234.83 233.984C1234.89 234.837 1235.06 235.573 1235.34 236.192C1235.62 236.789 1236.04 237.248 1236.62 237.568C1237.22 237.888 1238.04 238.048 1239.08 238.048C1240.13 238.048 1240.94 237.888 1241.51 237.568C1242.11 237.248 1242.55 236.789 1242.83 236.192C1243.1 235.573 1243.27 234.837 1243.34 233.984C1243.4 233.131 1243.43 232.16 1243.43 231.072V217.664H1246.12V230.432C1246.12 232.096 1246.04 233.547 1245.87 234.784C1245.72 236.021 1245.39 237.056 1244.87 237.888C1244.38 238.72 1243.67 239.349 1242.73 239.776C1241.81 240.181 1240.6 240.384 1239.08 240.384C1237.57 240.384 1236.34 240.181 1235.4 239.776C1234.49 239.349 1233.77 238.72 1233.26 237.888C1232.77 237.056 1232.44 236.021 1232.27 234.784C1232.12 233.547 1232.04 232.096 1232.04 230.432V217.664H1234.73ZM1261.92 240H1259.23V217.664H1267.36C1269.43 217.664 1271.01 218.229 1272.09 219.36C1273.18 220.491 1273.73 222.069 1273.73 224.096C1273.73 225.909 1273.26 227.36 1272.32 228.448C1271.38 229.536 1270.01 230.165 1268.22 230.336L1273.92 240H1270.91L1265.47 230.464H1261.92V240ZM1267.29 228.192C1268.42 228.192 1269.3 227.915 1269.92 227.36C1270.56 226.784 1270.88 225.973 1270.88 224.928V223.264C1270.88 222.219 1270.56 221.419 1269.92 220.864C1269.3 220.288 1268.42 220 1267.29 220H1261.92V228.192H1267.29ZM1286.1 240V217.664H1299.86V220H1288.79V227.52H1299.47V229.856H1288.79V237.664H1299.86V240H1286.1ZM1319.69 240.288C1318.81 240.288 1318.19 240.107 1317.83 239.744C1317.49 239.381 1317.32 238.923 1317.32 238.368V237.792C1317.32 237.237 1317.49 236.779 1317.83 236.416C1318.19 236.053 1318.81 235.872 1319.69 235.872C1320.56 235.872 1321.17 236.053 1321.51 236.416C1321.87 236.779 1322.05 237.237 1322.05 237.792V238.368C1322.05 238.923 1321.87 239.381 1321.51 239.744C1321.17 240.107 1320.56 240.288 1319.69 240.288Z" fill="white"/>
<line x1="677.5" y1="80" x2="677.5" y2="290" stroke="#2A2A2A"/>
<rect x="605" y="259" width="30" height="30" fill="#39FF14"/>
<path d="M3.85 155.15H89.1V183.2H3.85V155.15ZM89.375 87.775V116.375C87.5417 116.375 85.6167 116.375 83.6 116.375C81.7667 116.375 79.8417 116.375 77.825 116.375C69.3917 116.375 63.7083 118.392 60.775 122.425C58.025 126.458 56.65 131.867 56.65 138.65V291H23.375V138.65C23.375 126.183 25.3917 116.192 29.425 108.675C33.4583 100.975 39.1417 95.3833 46.475 91.9C53.8083 88.2333 62.3333 86.4 72.05 86.4C74.8 86.4 77.6417 86.4917 80.575 86.675C83.6917 86.8583 86.625 87.225 89.375 87.775ZM98.5102 222.8C98.5102 208.683 101.627 196.308 107.86 185.675C114.093 174.858 122.71 166.425 133.71 160.375C144.71 154.325 157.177 151.3 171.11 151.3C185.227 151.3 197.693 154.325 208.51 160.375C219.51 166.425 228.127 174.858 234.36 185.675C240.593 196.308 243.71 208.683 243.71 222.8C243.71 236.917 240.593 249.383 234.36 260.2C228.127 270.833 219.51 279.175 208.51 285.225C197.693 291.275 185.227 294.3 171.11 294.3C157.177 294.3 144.71 291.275 133.71 285.225C122.71 279.175 114.093 270.833 107.86 260.2C101.627 249.383 98.5102 236.917 98.5102 222.8ZM132.06 222.8C132.06 231.05 133.71 238.292 137.01 244.525C140.493 250.758 145.077 255.617 150.76 259.1C156.627 262.583 163.41 264.325 171.11 264.325C178.81 264.325 185.593 262.583 191.46 259.1C197.327 255.617 201.91 250.758 205.21 244.525C208.51 238.292 210.16 231.05 210.16 222.8C210.16 214.367 208.51 207.125 205.21 201.075C201.91 194.842 197.327 189.983 191.46 186.5C185.593 183.017 178.81 181.275 171.11 181.275C163.41 181.275 156.627 183.017 150.76 186.5C145.077 189.983 140.493 194.842 137.01 201.075C133.71 207.125 132.06 214.367 132.06 222.8ZM355.554 154.6V185.675H343.179C330.895 185.675 321.27 188.975 314.304 195.575C307.337 201.992 303.854 211.8 303.854 225V291H270.304V155.425H301.929L304.679 183.475H301.379C303.212 174.492 307.52 167.158 314.304 161.475C321.087 155.792 329.887 152.95 340.704 152.95C343.087 152.95 345.47 153.042 347.854 153.225C350.237 153.408 352.804 153.867 355.554 154.6ZM411.813 291H378.263V155.15H409.063L413.188 179.35L409.338 176.05C412.088 169.45 417.129 163.675 424.463 158.725C431.796 153.592 440.963 151.025 451.963 151.025C463.879 151.025 473.596 154.142 481.113 160.375C488.813 166.608 494.129 174.858 497.063 185.125H491.563C493.579 174.858 498.713 166.608 506.963 160.375C515.396 154.142 525.571 151.025 537.488 151.025C553.988 151.025 566.638 155.7 575.438 165.05C584.238 174.217 588.638 186.592 588.638 202.175V291H555.363V210.975C555.363 201.258 552.888 193.925 547.938 188.975C543.171 183.842 536.754 181.275 528.688 181.275C523.554 181.275 518.788 182.467 514.388 184.85C510.171 187.233 506.779 190.808 504.213 195.575C501.646 200.342 500.363 206.483 500.363 214V291H466.813V210.7C466.813 201.167 464.429 193.925 459.663 188.975C454.896 184.025 448.571 181.55 440.688 181.55C435.371 181.55 430.513 182.742 426.113 185.125C421.713 187.325 418.229 190.9 415.663 195.85C413.096 200.617 411.813 206.667 411.813 214V291Z" fill="white"/>
</svg>