<svg xmlns="http://www.w3.org/2000/svg" width="1533" height="344" viewBox="0 0 1533 344" fill="none">
<path d="M819.008 119.432H841.472V126.776H819.008V119.432ZM834.632 155H825.848V108.344H834.632V155ZM854.349 155H845.565V101.432H854.421V124.04C855.525 122.312 857.061 120.944 859.029 119.936C861.045 118.88 863.349 118.352 865.941 118.352C870.309 118.352 873.621 119.672 875.877 122.312C878.181 124.952 879.333 128.552 879.333 133.112V155H870.549V135.2C870.549 133.184 870.237 131.528 869.613 130.232C868.989 128.936 868.125 127.976 867.021 127.352C865.917 126.68 864.621 126.344 863.133 126.344C861.309 126.344 859.725 126.752 858.381 127.568C857.085 128.336 856.077 129.416 855.357 130.808C854.685 132.2 854.349 133.784 854.349 135.56V155ZM902.435 155.936C898.931 155.936 895.811 155.144 893.075 153.56C890.387 151.928 888.275 149.72 886.739 146.936C885.203 144.104 884.435 140.864 884.435 137.216C884.435 133.52 885.179 130.256 886.667 127.424C888.155 124.592 890.243 122.384 892.931 120.8C895.619 119.168 898.691 118.352 902.147 118.352C905.747 118.352 908.843 119.12 911.435 120.656C914.027 122.144 916.019 124.232 917.411 126.92C918.851 129.608 919.571 132.824 919.571 136.568V139.232L889.043 139.304L889.187 133.688H910.859C910.859 131.24 910.067 129.272 908.483 127.784C906.947 126.296 904.859 125.552 902.219 125.552C900.155 125.552 898.403 125.984 896.963 126.848C895.571 127.712 894.515 129.008 893.795 130.736C893.075 132.464 892.715 134.576 892.715 137.072C892.715 140.912 893.531 143.816 895.163 145.784C896.843 147.752 899.315 148.736 902.579 148.736C904.979 148.736 906.947 148.28 908.483 147.368C910.067 146.456 911.099 145.16 911.579 143.48H919.715C918.947 147.368 917.027 150.416 913.955 152.624C910.931 154.832 907.091 155.936 902.435 155.936ZM939.6 119.432H961.92V126.776H939.6V119.432ZM961.992 101.792V109.28C961.512 109.28 961.008 109.28 960.48 109.28C960 109.28 959.496 109.28 958.968 109.28C956.76 109.28 955.272 109.808 954.504 110.864C953.784 111.92 953.424 113.336 953.424 115.112V155H944.712V115.112C944.712 111.848 945.24 109.232 946.296 107.264C947.352 105.248 948.84 103.784 950.76 102.872C952.68 101.912 954.912 101.432 957.456 101.432C958.176 101.432 958.92 101.456 959.688 101.504C960.504 101.552 961.272 101.648 961.992 101.792ZM990.206 119.432H998.99V155H990.854L990.206 150.248C989.15 151.928 987.566 153.296 985.454 154.352C983.342 155.408 981.086 155.936 978.686 155.936C974.606 155.936 971.414 154.64 969.11 152.048C966.806 149.456 965.654 146 965.654 141.68V119.432H974.438V138.584C974.438 141.944 975.086 144.368 976.382 145.856C977.678 147.344 979.55 148.088 981.998 148.088C984.782 148.088 986.846 147.272 988.19 145.64C989.534 143.96 990.206 141.44 990.206 138.08V119.432ZM1003.09 119.432H1025.56V126.776H1003.09V119.432ZM1018.72 155H1009.93V108.344H1018.72V155ZM1053.77 119.432H1062.56V155H1054.42L1053.77 150.248C1052.72 151.928 1051.13 153.296 1049.02 154.352C1046.91 155.408 1044.65 155.936 1042.25 155.936C1038.17 155.936 1034.98 154.64 1032.68 152.048C1030.37 149.456 1029.22 146 1029.22 141.68V119.432H1038V138.584C1038 141.944 1038.65 144.368 1039.95 145.856C1041.24 147.344 1043.12 148.088 1045.56 148.088C1048.35 148.088 1050.41 147.272 1051.76 145.64C1053.1 143.96 1053.77 141.44 1053.77 138.08V119.432ZM1092.51 119.288V127.424H1089.27C1086.05 127.424 1083.53 128.288 1081.71 130.016C1079.88 131.696 1078.97 134.264 1078.97 137.72V155H1070.19V119.504H1078.47L1079.19 126.848H1078.32C1078.8 124.496 1079.93 122.576 1081.71 121.088C1083.48 119.6 1085.79 118.856 1088.62 118.856C1089.24 118.856 1089.87 118.88 1090.49 118.928C1091.12 118.976 1091.79 119.096 1092.51 119.288ZM1111.73 155.936C1108.23 155.936 1105.11 155.144 1102.37 153.56C1099.68 151.928 1097.57 149.72 1096.03 146.936C1094.5 144.104 1093.73 140.864 1093.73 137.216C1093.73 133.52 1094.47 130.256 1095.96 127.424C1097.45 124.592 1099.54 122.384 1102.23 120.8C1104.91 119.168 1107.99 118.352 1111.44 118.352C1115.04 118.352 1118.14 119.12 1120.73 120.656C1123.32 122.144 1125.31 124.232 1126.71 126.92C1128.15 129.608 1128.87 132.824 1128.87 136.568V139.232L1098.34 139.304L1098.48 133.688H1120.15C1120.15 131.24 1119.36 129.272 1117.78 127.784C1116.24 126.296 1114.15 125.552 1111.51 125.552C1109.45 125.552 1107.7 125.984 1106.26 126.848C1104.87 127.712 1103.81 129.008 1103.09 130.736C1102.37 132.464 1102.01 134.576 1102.01 137.072C1102.01 140.912 1102.83 143.816 1104.46 145.784C1106.14 147.752 1108.61 148.736 1111.87 148.736C1114.27 148.736 1116.24 148.28 1117.78 147.368C1119.36 146.456 1120.39 145.16 1120.87 143.48H1129.01C1128.24 147.368 1126.32 150.416 1123.25 152.624C1120.23 154.832 1116.39 155.936 1111.73 155.936ZM1161.21 155H1152.42V119.432H1160.56L1161.28 124.04C1162.38 122.264 1163.94 120.872 1165.96 119.864C1168.02 118.856 1170.25 118.352 1172.65 118.352C1177.12 118.352 1180.48 119.672 1182.73 122.312C1185.04 124.952 1186.19 128.552 1186.19 133.112V155H1177.41V135.2C1177.41 132.224 1176.73 130.016 1175.39 128.576C1174.05 127.088 1172.22 126.344 1169.92 126.344C1167.18 126.344 1165.05 127.208 1163.51 128.936C1161.97 130.664 1161.21 132.968 1161.21 135.848V155ZM1209.29 155.936C1205.79 155.936 1202.67 155.144 1199.93 153.56C1197.25 151.928 1195.13 149.72 1193.6 146.936C1192.06 144.104 1191.29 140.864 1191.29 137.216C1191.29 133.52 1192.04 130.256 1193.53 127.424C1195.01 124.592 1197.1 122.384 1199.79 120.8C1202.48 119.168 1205.55 118.352 1209.01 118.352C1212.61 118.352 1215.7 119.12 1218.29 120.656C1220.89 122.144 1222.88 124.232 1224.27 126.92C1225.71 129.608 1226.43 132.824 1226.43 136.568V139.232L1195.9 139.304L1196.05 133.688H1217.72C1217.72 131.24 1216.93 129.272 1215.34 127.784C1213.81 126.296 1211.72 125.552 1209.08 125.552C1207.01 125.552 1205.26 125.984 1203.82 126.848C1202.43 127.712 1201.37 129.008 1200.65 130.736C1199.93 132.464 1199.57 134.576 1199.57 137.072C1199.57 140.912 1200.39 143.816 1202.02 145.784C1203.7 147.752 1206.17 148.736 1209.44 148.736C1211.84 148.736 1213.81 148.28 1215.34 147.368C1216.93 146.456 1217.96 145.16 1218.44 143.48H1226.57C1225.81 147.368 1223.89 150.416 1220.81 152.624C1217.79 154.832 1213.95 155.936 1209.29 155.936ZM1247.93 155.936C1244.43 155.936 1241.31 155.144 1238.57 153.56C1235.88 151.928 1233.77 149.72 1232.24 146.936C1230.7 144.104 1229.93 140.864 1229.93 137.216C1229.93 133.52 1230.68 130.256 1232.16 127.424C1233.65 124.592 1235.74 122.384 1238.43 120.8C1241.12 119.168 1244.19 118.352 1247.64 118.352C1251.24 118.352 1254.34 119.12 1256.93 120.656C1259.52 122.144 1261.52 124.232 1262.91 126.92C1264.35 129.608 1265.07 132.824 1265.07 136.568V139.232L1234.54 139.304L1234.68 133.688H1256.36C1256.36 131.24 1255.56 129.272 1253.98 127.784C1252.44 126.296 1250.36 125.552 1247.72 125.552C1245.65 125.552 1243.9 125.984 1242.46 126.848C1241.07 127.712 1240.01 129.008 1239.29 130.736C1238.57 132.464 1238.21 134.576 1238.21 137.072C1238.21 140.912 1239.03 143.816 1240.66 145.784C1242.34 147.752 1244.81 148.736 1248.08 148.736C1250.48 148.736 1252.44 148.28 1253.98 147.368C1255.56 146.456 1256.6 145.16 1257.08 143.48H1265.21C1264.44 147.368 1262.52 150.416 1259.45 152.624C1256.43 154.832 1252.59 155.936 1247.93 155.936ZM1285.27 155.936C1281.82 155.936 1278.84 155.168 1276.35 153.632C1273.9 152.048 1271.98 149.864 1270.59 147.08C1269.24 144.296 1268.57 141.056 1268.57 137.36C1268.57 133.664 1269.24 130.4 1270.59 127.568C1271.98 124.688 1273.97 122.432 1276.56 120.8C1279.15 119.168 1282.23 118.352 1285.78 118.352C1288.27 118.352 1290.55 118.856 1292.62 119.864C1294.68 120.824 1296.27 122.192 1297.37 123.968V101.432H1306.08V155H1298.02L1297.44 149.456C1296.39 151.472 1294.75 153.056 1292.55 154.208C1290.39 155.36 1287.96 155.936 1285.27 155.936ZM1287.22 147.872C1289.28 147.872 1291.06 147.44 1292.55 146.576C1294.03 145.664 1295.19 144.392 1296 142.76C1296.87 141.08 1297.3 139.184 1297.3 137.072C1297.3 134.912 1296.87 133.04 1296 131.456C1295.19 129.824 1294.03 128.552 1292.55 127.64C1291.06 126.68 1289.28 126.2 1287.22 126.2C1285.2 126.2 1283.45 126.68 1281.96 127.64C1280.47 128.552 1279.32 129.824 1278.51 131.456C1277.74 133.088 1277.35 134.96 1277.35 137.072C1277.35 139.184 1277.74 141.056 1278.51 142.688C1279.32 144.32 1280.47 145.592 1281.96 146.504C1283.45 147.416 1285.2 147.872 1287.22 147.872ZM1311.06 144.2H1319.41C1319.46 145.736 1320.04 146.96 1321.14 147.872C1322.24 148.784 1323.78 149.24 1325.75 149.24C1327.86 149.24 1329.44 148.856 1330.5 148.088C1331.6 147.32 1332.16 146.288 1332.16 144.992C1332.16 144.128 1331.87 143.36 1331.29 142.688C1330.72 142.016 1329.64 141.512 1328.05 141.176L1321.64 139.664C1318.43 138.944 1316.03 137.792 1314.44 136.208C1312.91 134.576 1312.14 132.344 1312.14 129.512C1312.14 127.208 1312.74 125.216 1313.94 123.536C1315.19 121.856 1316.87 120.584 1318.98 119.72C1321.09 118.808 1323.52 118.352 1326.25 118.352C1328.89 118.352 1331.22 118.832 1333.24 119.792C1335.25 120.752 1336.81 122.096 1337.92 123.824C1339.07 125.552 1339.67 127.568 1339.72 129.872H1331.36C1331.36 128.336 1330.88 127.136 1329.92 126.272C1328.96 125.36 1327.62 124.904 1325.89 124.904C1324.16 124.904 1322.82 125.288 1321.86 126.056C1320.9 126.824 1320.42 127.856 1320.42 129.152C1320.42 131.12 1321.96 132.464 1325.03 133.184L1331.44 134.696C1334.41 135.368 1336.64 136.448 1338.13 137.936C1339.67 139.424 1340.44 141.536 1340.44 144.272C1340.44 146.672 1339.81 148.76 1338.56 150.536C1337.32 152.264 1335.56 153.608 1333.31 154.568C1331.05 155.48 1328.46 155.936 1325.53 155.936C1321.12 155.936 1317.59 154.856 1314.95 152.696C1312.36 150.536 1311.06 147.704 1311.06 144.2Z" fill="#2A2A2A"/>
<path d="M1360.12 119.432H1382.44V126.776H1360.12V119.432ZM1382.51 101.792V109.28C1382.03 109.28 1381.53 109.28 1381 109.28C1380.52 109.28 1380.02 109.28 1379.49 109.28C1377.28 109.28 1375.79 109.808 1375.03 110.864C1374.31 111.92 1373.95 113.336 1373.95 115.112V155H1365.23V115.112C1365.23 111.848 1365.76 109.232 1366.82 107.264C1367.87 105.248 1369.36 103.784 1371.28 102.872C1373.2 101.912 1375.43 101.432 1377.98 101.432C1378.7 101.432 1379.44 101.456 1380.21 101.504C1381.03 101.552 1381.79 101.648 1382.51 101.792ZM1383.47 137.144C1383.47 133.448 1384.28 130.208 1385.91 127.424C1387.55 124.592 1389.8 122.384 1392.68 120.8C1395.56 119.216 1398.83 118.424 1402.47 118.424C1406.17 118.424 1409.43 119.216 1412.27 120.8C1415.15 122.384 1417.4 124.592 1419.03 127.424C1420.67 130.208 1421.48 133.448 1421.48 137.144C1421.48 140.84 1420.67 144.104 1419.03 146.936C1417.4 149.72 1415.15 151.904 1412.27 153.488C1409.43 155.072 1406.17 155.864 1402.47 155.864C1398.83 155.864 1395.56 155.072 1392.68 153.488C1389.8 151.904 1387.55 149.72 1385.91 146.936C1384.28 144.104 1383.47 140.84 1383.47 137.144ZM1392.25 137.144C1392.25 139.304 1392.68 141.2 1393.55 142.832C1394.46 144.464 1395.66 145.736 1397.15 146.648C1398.68 147.56 1400.46 148.016 1402.47 148.016C1404.49 148.016 1406.27 147.56 1407.8 146.648C1409.34 145.736 1410.54 144.464 1411.4 142.832C1412.27 141.2 1412.7 139.304 1412.7 137.144C1412.7 134.936 1412.27 133.04 1411.4 131.456C1410.54 129.824 1409.34 128.552 1407.8 127.64C1406.27 126.728 1404.49 126.272 1402.47 126.272C1400.46 126.272 1398.68 126.728 1397.15 127.64C1395.66 128.552 1394.46 129.824 1393.55 131.456C1392.68 133.04 1392.25 134.936 1392.25 137.144ZM1449.32 119.288V127.424H1446.08C1442.87 127.424 1440.35 128.288 1438.52 130.016C1436.7 131.696 1435.79 134.264 1435.79 137.72V155H1427V119.504H1435.28L1436 126.848H1435.14C1435.62 124.496 1436.75 122.576 1438.52 121.088C1440.3 119.6 1442.6 118.856 1445.44 118.856C1446.06 118.856 1446.68 118.88 1447.31 118.928C1447.93 118.976 1448.6 119.096 1449.32 119.288ZM1462.61 155H1453.83V119.432H1461.89L1462.97 125.768L1461.97 124.904C1462.69 123.176 1464.01 121.664 1465.93 120.368C1467.85 119.024 1470.25 118.352 1473.13 118.352C1476.25 118.352 1478.79 119.168 1480.76 120.8C1482.77 122.432 1484.17 124.592 1484.93 127.28H1483.49C1484.02 124.592 1485.37 122.432 1487.53 120.8C1489.73 119.168 1492.4 118.352 1495.52 118.352C1499.84 118.352 1503.15 119.576 1505.45 122.024C1507.76 124.424 1508.91 127.664 1508.91 131.744V155H1500.2V134.048C1500.2 131.504 1499.55 129.584 1498.25 128.288C1497.01 126.944 1495.33 126.272 1493.21 126.272C1491.87 126.272 1490.62 126.584 1489.47 127.208C1488.37 127.832 1487.48 128.768 1486.81 130.016C1486.13 131.264 1485.8 132.872 1485.8 134.84V155H1477.01V133.976C1477.01 131.48 1476.39 129.584 1475.14 128.288C1473.89 126.992 1472.24 126.344 1470.17 126.344C1468.78 126.344 1467.51 126.656 1466.36 127.28C1465.21 127.856 1464.29 128.792 1463.62 130.088C1462.95 131.336 1462.61 132.92 1462.61 134.84V155ZM1522 155.864C1520.41 155.864 1519.04 155.312 1517.89 154.208C1516.74 153.104 1516.16 151.76 1516.16 150.176C1516.16 148.592 1516.74 147.248 1517.89 146.144C1519.04 144.992 1520.41 144.416 1522 144.416C1523.58 144.416 1524.95 144.992 1526.1 146.144C1527.25 147.248 1527.83 148.592 1527.83 150.176C1527.83 151.76 1527.25 153.104 1526.1 154.208C1524.95 155.312 1523.58 155.864 1522 155.864Z" fill="#39FF14"/>
<path d="M824.776 213L818.152 190.664H821L824.168 201.832L826.568 210.28H826.728L829.128 201.832L832.296 190.664H835.048L828.424 213H824.776ZM846.556 213V210.856H852.124V192.808H846.556V190.664H860.38V192.808H854.812V210.856H860.38V213H846.556ZM880.271 213.384C878.266 213.384 876.623 213.021 875.343 212.296C874.063 211.549 873.007 210.6 872.175 209.448L874.127 207.848C875.002 208.936 875.919 209.747 876.879 210.28C877.86 210.813 879.023 211.08 880.367 211.08C881.988 211.08 883.226 210.707 884.079 209.96C884.932 209.213 885.359 208.168 885.359 206.824C885.359 205.736 885.05 204.893 884.431 204.296C883.812 203.677 882.735 203.24 881.199 202.984L878.703 202.568C877.615 202.376 876.698 202.088 875.951 201.704C875.226 201.32 874.639 200.861 874.191 200.328C873.743 199.773 873.423 199.176 873.231 198.536C873.039 197.875 872.943 197.192 872.943 196.488C872.943 194.44 873.615 192.893 874.959 191.848C876.303 190.803 878.116 190.28 880.399 190.28C882.191 190.28 883.695 190.579 884.911 191.176C886.148 191.773 887.14 192.616 887.887 193.704L885.999 195.336C885.38 194.525 884.634 193.864 883.759 193.352C882.884 192.84 881.754 192.584 880.367 192.584C878.852 192.584 877.69 192.904 876.879 193.544C876.068 194.184 875.663 195.144 875.663 196.424C875.663 197.427 875.962 198.248 876.559 198.888C877.178 199.507 878.276 199.955 879.855 200.232L882.255 200.648C883.343 200.84 884.26 201.128 885.007 201.512C885.754 201.896 886.351 202.355 886.799 202.888C887.268 203.421 887.599 204.019 887.791 204.68C887.983 205.341 888.079 206.035 888.079 206.76C888.079 208.829 887.396 210.451 886.031 211.624C884.687 212.797 882.767 213.384 880.271 213.384ZM900.291 213V210.856H905.859V192.808H900.291V190.664H914.115V192.808H908.547V210.856H914.115V213H900.291ZM934.07 213.384C932.705 213.384 931.531 213.128 930.55 212.616C929.569 212.083 928.758 211.325 928.118 210.344C927.478 209.363 927.009 208.157 926.71 206.728C926.411 205.299 926.262 203.667 926.262 201.832C926.262 200.019 926.411 198.397 926.71 196.968C927.009 195.517 927.478 194.301 928.118 193.32C928.758 192.339 929.569 191.592 930.55 191.08C931.531 190.547 932.705 190.28 934.07 190.28C935.435 190.28 936.609 190.547 937.59 191.08C938.571 191.592 939.382 192.339 940.022 193.32C940.662 194.301 941.131 195.517 941.43 196.968C941.729 198.397 941.878 200.019 941.878 201.832C941.878 203.667 941.729 205.299 941.43 206.728C941.131 208.157 940.662 209.363 940.022 210.344C939.382 211.325 938.571 212.083 937.59 212.616C936.609 213.128 935.435 213.384 934.07 213.384ZM934.07 211.048C934.966 211.048 935.723 210.877 936.342 210.536C936.961 210.173 937.473 209.672 937.878 209.032C938.283 208.392 938.571 207.624 938.742 206.728C938.934 205.811 939.03 204.787 939.03 203.656V200.008C939.03 198.899 938.934 197.885 938.742 196.968C938.571 196.051 938.283 195.272 937.878 194.632C937.473 193.992 936.961 193.501 936.342 193.16C935.723 192.797 934.966 192.616 934.07 192.616C933.174 192.616 932.417 192.797 931.798 193.16C931.179 193.501 930.667 193.992 930.262 194.632C929.857 195.272 929.558 196.051 929.366 196.968C929.195 197.885 929.11 198.899 929.11 200.008V203.656C929.11 204.787 929.195 205.811 929.366 206.728C929.558 207.624 929.857 208.392 930.262 209.032C930.667 209.672 931.179 210.173 931.798 210.536C932.417 210.877 933.174 211.048 934.07 211.048ZM956.553 194.184H956.329V213H953.897V190.664H957.705L965.321 209.48H965.545V190.664H967.977V213H964.169L956.553 194.184ZM1010.29 194.184H1010.06V213H1007.63V190.664H1011.44L1019.06 209.48H1019.28V190.664H1021.71V213H1017.9L1010.29 194.184ZM1034.82 213V190.664H1048.58V193H1037.51V200.52H1048.2V202.856H1037.51V210.664H1048.58V213H1034.82ZM1061.69 213V190.664H1075.45V193H1064.38V200.52H1075.06V202.856H1064.38V210.664H1075.45V213H1061.69ZM1088.71 190.664H1094.95C1097.69 190.664 1099.72 191.603 1101.07 193.48C1102.41 195.357 1103.08 198.141 1103.08 201.832C1103.08 205.523 1102.41 208.307 1101.07 210.184C1099.72 212.061 1097.69 213 1094.95 213H1088.71V190.664ZM1094.83 210.664C1096.62 210.664 1097.96 210.045 1098.86 208.808C1099.78 207.571 1100.23 205.821 1100.23 203.56V200.104C1100.23 197.843 1099.78 196.093 1098.86 194.856C1097.96 193.619 1096.62 193 1094.83 193H1091.4V210.664H1094.83ZM1122.08 213.384C1120.07 213.384 1118.43 213.021 1117.15 212.296C1115.87 211.549 1114.81 210.6 1113.98 209.448L1115.93 207.848C1116.81 208.936 1117.73 209.747 1118.69 210.28C1119.67 210.813 1120.83 211.08 1122.17 211.08C1123.8 211.08 1125.03 210.707 1125.89 209.96C1126.74 209.213 1127.17 208.168 1127.17 206.824C1127.17 205.736 1126.86 204.893 1126.24 204.296C1125.62 203.677 1124.54 203.24 1123.01 202.984L1120.51 202.568C1119.42 202.376 1118.51 202.088 1117.76 201.704C1117.03 201.32 1116.45 200.861 1116 200.328C1115.55 199.773 1115.23 199.176 1115.04 198.536C1114.85 197.875 1114.75 197.192 1114.75 196.488C1114.75 194.44 1115.42 192.893 1116.77 191.848C1118.11 190.803 1119.92 190.28 1122.21 190.28C1124 190.28 1125.5 190.579 1126.72 191.176C1127.96 191.773 1128.95 192.616 1129.69 193.704L1127.81 195.336C1127.19 194.525 1126.44 193.864 1125.57 193.352C1124.69 192.84 1123.56 192.584 1122.17 192.584C1120.66 192.584 1119.5 192.904 1118.69 193.544C1117.88 194.184 1117.47 195.144 1117.47 196.424C1117.47 197.427 1117.77 198.248 1118.37 198.888C1118.99 199.507 1120.08 199.955 1121.66 200.232L1124.06 200.648C1125.15 200.84 1126.07 201.128 1126.81 201.512C1127.56 201.896 1128.16 202.355 1128.61 202.888C1129.08 203.421 1129.41 204.019 1129.6 204.68C1129.79 205.341 1129.89 206.035 1129.89 206.76C1129.89 208.829 1129.2 210.451 1127.84 211.624C1126.49 212.797 1124.57 213.384 1122.08 213.384ZM1175.81 213.384C1173.81 213.384 1172.17 213.021 1170.89 212.296C1169.61 211.549 1168.55 210.6 1167.72 209.448L1169.67 207.848C1170.54 208.936 1171.46 209.747 1172.42 210.28C1173.4 210.813 1174.57 211.08 1175.91 211.08C1177.53 211.08 1178.77 210.707 1179.62 209.96C1180.47 209.213 1180.9 208.168 1180.9 206.824C1180.9 205.736 1180.59 204.893 1179.97 204.296C1179.35 203.677 1178.28 203.24 1176.74 202.984L1174.25 202.568C1173.16 202.376 1172.24 202.088 1171.49 201.704C1170.77 201.32 1170.18 200.861 1169.73 200.328C1169.29 199.773 1168.97 199.176 1168.77 198.536C1168.58 197.875 1168.49 197.192 1168.49 196.488C1168.49 194.44 1169.16 192.893 1170.5 191.848C1171.85 190.803 1173.66 190.28 1175.94 190.28C1177.73 190.28 1179.24 190.579 1180.45 191.176C1181.69 191.773 1182.68 192.616 1183.43 193.704L1181.54 195.336C1180.92 194.525 1180.18 193.864 1179.3 193.352C1178.43 192.84 1177.3 192.584 1175.91 192.584C1174.39 192.584 1173.23 192.904 1172.42 193.544C1171.61 194.184 1171.21 195.144 1171.21 196.424C1171.21 197.427 1171.5 198.248 1172.1 198.888C1172.72 199.507 1173.82 199.955 1175.4 200.232L1177.8 200.648C1178.89 200.84 1179.8 201.128 1180.55 201.512C1181.3 201.896 1181.89 202.355 1182.34 202.888C1182.81 203.421 1183.14 204.019 1183.33 204.68C1183.53 205.341 1183.62 206.035 1183.62 206.76C1183.62 208.829 1182.94 210.451 1181.57 211.624C1180.23 212.797 1178.31 213.384 1175.81 213.384ZM1204.09 193V213H1201.4V193H1193.94V190.664H1211.54V193H1204.09ZM1225.58 213H1222.89V190.664H1231.02C1233.09 190.664 1234.67 191.229 1235.76 192.36C1236.84 193.491 1237.39 195.069 1237.39 197.096C1237.39 198.909 1236.92 200.36 1235.98 201.448C1235.04 202.536 1233.68 203.165 1231.88 203.336L1237.58 213H1234.57L1229.13 203.464H1225.58V213ZM1230.96 201.192C1232.09 201.192 1232.96 200.915 1233.58 200.36C1234.22 199.784 1234.54 198.973 1234.54 197.928V196.264C1234.54 195.219 1234.22 194.419 1233.58 193.864C1232.96 193.288 1232.09 193 1230.96 193H1225.58V201.192H1230.96ZM1252.13 190.664V204.072C1252.13 205.16 1252.16 206.131 1252.22 206.984C1252.29 207.837 1252.46 208.573 1252.74 209.192C1253.01 209.789 1253.44 210.248 1254.02 210.568C1254.61 210.888 1255.43 211.048 1256.48 211.048C1257.53 211.048 1258.34 210.888 1258.91 210.568C1259.51 210.248 1259.95 209.789 1260.22 209.192C1260.5 208.573 1260.67 207.837 1260.74 206.984C1260.8 206.131 1260.83 205.16 1260.83 204.072V190.664H1263.52V203.432C1263.52 205.096 1263.43 206.547 1263.26 207.784C1263.11 209.021 1262.78 210.056 1262.27 210.888C1261.78 211.72 1261.07 212.349 1260.13 212.776C1259.21 213.181 1257.99 213.384 1256.48 213.384C1254.97 213.384 1253.74 213.181 1252.8 212.776C1251.88 212.349 1251.17 211.72 1250.66 210.888C1250.17 210.056 1249.83 209.021 1249.66 207.784C1249.51 206.547 1249.44 205.096 1249.44 203.432V190.664H1252.13ZM1284.08 213.384C1281.35 213.384 1279.32 212.392 1277.97 210.408C1276.65 208.424 1275.99 205.565 1275.99 201.832C1275.99 198.099 1276.65 195.24 1277.97 193.256C1279.32 191.272 1281.35 190.28 1284.08 190.28C1285.11 190.28 1285.99 190.419 1286.74 190.696C1287.49 190.973 1288.13 191.347 1288.66 191.816C1289.19 192.285 1289.64 192.819 1290 193.416C1290.37 193.992 1290.69 194.579 1290.96 195.176L1288.66 196.232C1288.47 195.741 1288.24 195.283 1287.99 194.856C1287.73 194.408 1287.42 194.024 1287.06 193.704C1286.72 193.363 1286.3 193.096 1285.81 192.904C1285.34 192.712 1284.77 192.616 1284.08 192.616C1282.31 192.616 1280.99 193.288 1280.12 194.632C1279.26 195.976 1278.84 197.768 1278.84 200.008V203.656C1278.84 205.896 1279.26 207.688 1280.12 209.032C1280.99 210.376 1282.31 211.048 1284.08 211.048C1284.77 211.048 1285.34 210.952 1285.81 210.76C1286.3 210.568 1286.72 210.312 1287.06 209.992C1287.42 209.651 1287.73 209.267 1287.99 208.84C1288.24 208.392 1288.47 207.923 1288.66 207.432L1290.96 208.488C1290.69 209.107 1290.37 209.704 1290 210.28C1289.64 210.856 1289.19 211.379 1288.66 211.848C1288.13 212.317 1287.49 212.691 1286.74 212.968C1285.99 213.245 1285.11 213.384 1284.08 213.384ZM1311.56 193V213H1308.87V193H1301.41V190.664H1319.01V193H1311.56ZM1332.73 190.664V204.072C1332.73 205.16 1332.76 206.131 1332.83 206.984C1332.89 207.837 1333.06 208.573 1333.34 209.192C1333.62 209.789 1334.04 210.248 1334.62 210.568C1335.22 210.888 1336.04 211.048 1337.08 211.048C1338.13 211.048 1338.94 210.888 1339.51 210.568C1340.11 210.248 1340.55 209.789 1340.83 209.192C1341.1 208.573 1341.27 207.837 1341.34 206.984C1341.4 206.131 1341.43 205.16 1341.43 204.072V190.664H1344.12V203.432C1344.12 205.096 1344.04 206.547 1343.87 207.784C1343.72 209.021 1343.39 210.056 1342.87 210.888C1342.38 211.72 1341.67 212.349 1340.73 212.776C1339.81 213.181 1338.6 213.384 1337.08 213.384C1335.57 213.384 1334.34 213.181 1333.4 212.776C1332.49 212.349 1331.77 211.72 1331.26 210.888C1330.77 210.056 1330.44 209.021 1330.27 207.784C1330.12 206.547 1330.04 205.096 1330.04 203.432V190.664H1332.73ZM1359.92 213H1357.23V190.664H1365.36C1367.43 190.664 1369.01 191.229 1370.09 192.36C1371.18 193.491 1371.73 195.069 1371.73 197.096C1371.73 198.909 1371.26 200.36 1370.32 201.448C1369.38 202.536 1368.01 203.165 1366.22 203.336L1371.92 213H1368.91L1363.47 203.464H1359.92V213ZM1365.29 201.192C1366.42 201.192 1367.3 200.915 1367.92 200.36C1368.56 199.784 1368.88 198.973 1368.88 197.928V196.264C1368.88 195.219 1368.56 194.419 1367.92 193.864C1367.3 193.288 1366.42 193 1365.29 193H1359.92V201.192H1365.29ZM1384.1 213V190.664H1397.86V193H1386.79V200.52H1397.47V202.856H1386.79V210.664H1397.86V213H1384.1ZM1417.69 213.288C1416.81 213.288 1416.19 213.107 1415.83 212.744C1415.49 212.381 1415.32 211.923 1415.32 211.368V210.792C1415.32 210.237 1415.49 209.779 1415.83 209.416C1416.19 209.053 1416.81 208.872 1417.69 208.872C1418.56 208.872 1419.17 209.053 1419.51 209.416C1419.87 209.779 1420.05 210.237 1420.05 210.792V211.368C1420.05 211.923 1419.87 212.381 1419.51 212.744C1419.17 213.107 1418.56 213.288 1417.69 213.288Z" fill="#2A2A2A"/>
<line x1="775.5" y1="53" x2="775.5" y2="263" stroke="#2A2A2A"/>
<rect x="703" y="232" width="30" height="30" fill="#39FF14"/>
<path d="M66.275 108.275V125.05H124.3V139.625H66.275V262H48.675V139.625H8.525V125.05H48.675V106.625C48.675 78.025 64.075 63.45 93.225 63.45C105.875 63.45 117.425 66.2 128.15 71.975L122.925 86.825C113.575 81.875 104.5 79.4 94.6 79.4C75.35 79.4 66.275 88.75 66.275 108.275ZM222.361 265.3C176.711 265.3 146.186 236.15 146.186 193.525C146.186 150.625 176.711 121.75 222.361 121.75C267.736 121.75 298.536 150.625 298.536 193.525C298.536 236.15 267.736 265.3 222.361 265.3ZM222.361 249.35C257.011 249.35 280.386 226.525 280.386 193.525C280.386 160.25 257.011 137.7 222.361 137.7C187.436 137.7 164.061 160.25 164.061 193.525C164.061 226.525 187.436 249.35 222.361 249.35ZM419.272 121.75C423.397 121.75 427.522 122.025 430.547 122.575L429.447 140.175C425.872 139.35 420.647 139.075 416.797 139.075C392.322 139.075 372.522 149.25 355.472 170.7V262H337.872V125.05H355.472V155.575C371.972 133.3 392.047 121.75 419.272 121.75ZM633.787 121.75C664.037 121.75 680.812 141.275 680.812 175.1V262H663.212V177.85C663.212 151.725 651.937 137.7 628.837 137.7C609.312 137.7 593.362 147.6 580.162 164.925C580.437 168.225 580.712 171.525 580.712 175.1V262H563.112V177.85C563.112 151.725 551.562 137.7 529.837 137.7C510.312 137.7 494.087 148.7 480.887 168.225V262H463.287V125.05H480.887V153.1C495.462 132.2 513.337 121.75 534.787 121.75C556.512 121.75 571.637 133.025 577.687 153.1C591.987 133.85 610.137 121.75 633.787 121.75Z" fill="#2A2A2A"/>
</svg>