<svg xmlns="http://www.w3.org/2000/svg" width="733" height="344" fill="none" viewBox="0 0 733 344"><path fill="#39ff14" d="M703 232h30v30h-30z"/><path fill="#fff" d="M66.275 108.275v16.775H124.3v14.575H66.275V262h-17.6V139.625H8.525V125.05h40.15v-18.425c0-28.6 15.4-43.175 44.55-43.175 12.65 0 24.2 2.75 34.925 8.525l-5.225 14.85C113.575 81.875 104.5 79.4 94.6 79.4c-19.25 0-28.325 9.35-28.325 28.875M222.361 265.3c-45.65 0-76.175-29.15-76.175-71.775 0-42.9 30.525-71.775 76.175-71.775 45.375 0 76.175 28.875 76.175 71.775 0 42.625-30.8 71.775-76.175 71.775m0-15.95c34.65 0 58.025-22.825 58.025-55.825 0-33.275-23.375-55.825-58.025-55.825-34.925 0-58.3 22.55-58.3 55.825 0 33 23.375 55.825 58.3 55.825m196.911-127.6c4.125 0 8.25.275 11.275.825l-1.1 17.6c-3.575-.825-8.8-1.1-12.65-1.1-24.475 0-44.275 10.175-61.325 31.625V262h-17.6V125.05h17.6v30.525c16.5-22.275 36.575-33.825 63.8-33.825m214.515 0c30.25 0 47.025 19.525 47.025 53.35V262h-17.6v-84.15c0-26.125-11.275-40.15-34.375-40.15-19.525 0-35.475 9.9-48.675 27.225.275 3.3.55 6.6.55 10.175V262h-17.6v-84.15c0-26.125-11.55-40.15-33.275-40.15-19.525 0-35.75 11-48.95 30.525V262h-17.6V125.05h17.6v28.05c14.575-20.9 32.45-31.35 53.9-31.35 21.725 0 36.85 11.275 42.9 31.35 14.3-19.25 32.45-31.35 56.1-31.35"/></svg>