<svg xmlns="http://www.w3.org/2000/svg" width="733" height="344" viewBox="0 0 733 344" fill="none">
<rect x="703" y="232" width="30" height="30" fill="#39FF14"/>
<path d="M66.275 108.275V125.05H124.3V139.625H66.275V262H48.675V139.625H8.525V125.05H48.675V106.625C48.675 78.025 64.075 63.45 93.225 63.45C105.875 63.45 117.425 66.2 128.15 71.975L122.925 86.825C113.575 81.875 104.5 79.4 94.6 79.4C75.35 79.4 66.275 88.75 66.275 108.275ZM222.361 265.3C176.711 265.3 146.186 236.15 146.186 193.525C146.186 150.625 176.711 121.75 222.361 121.75C267.736 121.75 298.536 150.625 298.536 193.525C298.536 236.15 267.736 265.3 222.361 265.3ZM222.361 249.35C257.011 249.35 280.386 226.525 280.386 193.525C280.386 160.25 257.011 137.7 222.361 137.7C187.436 137.7 164.061 160.25 164.061 193.525C164.061 226.525 187.436 249.35 222.361 249.35ZM419.272 121.75C423.397 121.75 427.522 122.025 430.547 122.575L429.447 140.175C425.872 139.35 420.647 139.075 416.797 139.075C392.322 139.075 372.522 149.25 355.472 170.7V262H337.872V125.05H355.472V155.575C371.972 133.3 392.047 121.75 419.272 121.75ZM633.787 121.75C664.037 121.75 680.812 141.275 680.812 175.1V262H663.212V177.85C663.212 151.725 651.937 137.7 628.837 137.7C609.312 137.7 593.362 147.6 580.162 164.925C580.437 168.225 580.712 171.525 580.712 175.1V262H563.112V177.85C563.112 151.725 551.562 137.7 529.837 137.7C510.312 137.7 494.087 148.7 480.887 168.225V262H463.287V125.05H480.887V153.1C495.462 132.2 513.337 121.75 534.787 121.75C556.512 121.75 571.637 133.025 577.687 153.1C591.987 133.85 610.137 121.75 633.787 121.75Z" fill="white"/>
</svg>