<svg xmlns="http://www.w3.org/2000/svg" width="1533" height="344" fill="none" viewBox="0 0 1533 344"><path fill="#2a2a2a" d="M819.008 119.432h22.464v7.344h-22.464zM834.632 155h-8.784v-46.656h8.784zm19.717 0h-8.784v-53.568h8.856v22.608q1.656-2.592 4.608-4.104 3.024-1.584 6.912-1.584 6.552 0 9.936 3.96 3.456 3.96 3.456 10.8V155h-8.784v-19.8q0-3.024-.936-4.968t-2.592-2.88q-1.656-1.008-3.888-1.008-2.736 0-4.752 1.224-1.944 1.152-3.024 3.24-1.008 2.088-1.008 4.752zm48.086.936q-5.256 0-9.36-2.376-4.032-2.448-6.336-6.624-2.304-4.248-2.304-9.72 0-5.544 2.232-9.792t6.264-6.624q4.032-2.448 9.216-2.448 5.4 0 9.288 2.304 3.888 2.232 5.976 6.264 2.16 4.032 2.16 9.648v2.664l-30.528.072.144-5.616h21.672q0-3.672-2.376-5.904-2.304-2.232-6.264-2.232-3.096 0-5.256 1.296-2.088 1.296-3.168 3.888t-1.08 6.336q0 5.76 2.448 8.712 2.52 2.952 7.416 2.952 3.6 0 5.904-1.368 2.376-1.368 3.096-3.888h8.136q-1.152 5.832-5.76 9.144-4.536 3.312-11.52 3.312m37.165-36.504h22.32v7.344H939.6zm22.392-17.64v7.488h-3.024q-3.312 0-4.464 1.584-1.08 1.584-1.08 4.248V155h-8.712v-39.888q0-4.896 1.584-7.848 1.584-3.024 4.464-4.392 2.88-1.44 6.696-1.44 1.08 0 2.232.072 1.224.072 2.304.288m28.214 17.64h8.784V155h-8.136l-.648-4.752q-1.584 2.52-4.752 4.104a14.9 14.9 0 0 1-6.768 1.584q-6.12 0-9.576-3.888t-3.456-10.368v-22.248h8.784v19.152q0 5.04 1.944 7.272t5.616 2.232q4.176 0 6.192-2.448 2.016-2.52 2.016-7.56zm12.884 0h22.47v7.344h-22.47zM1018.72 155h-8.79v-46.656h8.79zm35.05-35.568h8.79V155h-8.14l-.65-4.752c-1.05 1.68-2.64 3.048-4.75 4.104a14.9 14.9 0 0 1-6.77 1.584q-6.12 0-9.57-3.888c-2.31-2.592-3.46-6.048-3.46-10.368v-22.248h8.78v19.152q0 5.04 1.95 7.272c1.29 1.488 3.17 2.232 5.61 2.232 2.79 0 4.85-.816 6.2-2.448q2.01-2.52 2.01-7.56zm38.74-.144v8.136h-3.24q-4.83 0-7.56 2.592c-1.83 1.68-2.74 4.248-2.74 7.704V155h-8.78v-35.496h8.28l.72 7.344h-.87q.72-3.528 3.39-5.76c1.77-1.488 4.08-2.232 6.91-2.232.62 0 1.25.024 1.87.072.63.048 1.3.168 2.02.36m19.22 36.648q-5.25 0-9.36-2.376c-2.69-1.632-4.8-3.84-6.34-6.624-1.53-2.832-2.3-6.072-2.3-9.72 0-3.696.74-6.96 2.23-9.792q2.235-4.248 6.27-6.624c2.68-1.632 5.76-2.448 9.21-2.448 3.6 0 6.7.768 9.29 2.304 2.59 1.488 4.58 3.576 5.98 6.264q2.16 4.032 2.16 9.648v2.664l-30.53.072.14-5.616h21.67q0-3.672-2.37-5.904-2.31-2.232-6.27-2.232-3.09 0-5.25 1.296c-1.39.864-2.45 2.16-3.17 3.888q-1.08 2.592-1.08 6.336c0 3.84.82 6.744 2.45 8.712q2.52 2.952 7.41 2.952 3.6 0 5.91-1.368 2.37-1.368 3.09-3.888h8.14q-1.155 5.832-5.76 9.144-4.53 3.312-11.52 3.312m49.48-.936h-8.79v-35.568h8.14l.72 4.608q1.65-2.664 4.68-4.176 3.09-1.512 6.69-1.512 6.705 0 10.08 3.96c2.31 2.64 3.46 6.24 3.46 10.8V155h-8.78v-19.8c0-2.976-.68-5.184-2.02-6.624-1.34-1.488-3.17-2.232-5.47-2.232-2.74 0-4.87.864-6.41 2.592s-2.3 4.032-2.3 6.912zm48.08.936q-5.25 0-9.36-2.376a17.5 17.5 0 0 1-6.33-6.624q-2.31-4.248-2.31-9.72c0-3.696.75-6.96 2.24-9.792 1.48-2.832 3.57-5.04 6.26-6.624 2.69-1.632 5.76-2.448 9.22-2.448 3.6 0 6.69.768 9.28 2.304 2.6 1.488 4.59 3.576 5.98 6.264q2.16 4.032 2.16 9.648v2.664l-30.53.072.15-5.616h21.67c0-2.448-.79-4.416-2.38-5.904-1.53-1.488-3.62-2.232-6.26-2.232-2.07 0-3.82.432-5.26 1.296-1.39.864-2.45 2.16-3.17 3.888q-1.08 2.592-1.08 6.336c0 3.84.82 6.744 2.45 8.712 1.68 1.968 4.15 2.952 7.42 2.952 2.4 0 4.37-.456 5.9-1.368 1.59-.912 2.62-2.208 3.1-3.888h8.13q-1.14 5.832-5.76 9.144-4.53 3.312-11.52 3.312m38.64 0q-5.25 0-9.36-2.376-4.035-2.448-6.33-6.624-2.31-4.248-2.31-9.72c0-3.696.75-6.96 2.23-9.792q2.235-4.248 6.27-6.624 4.035-2.448 9.21-2.448c3.6 0 6.7.768 9.29 2.304 2.59 1.488 4.59 3.576 5.98 6.264q2.16 4.032 2.16 9.648v2.664l-30.53.072.14-5.616h21.68c0-2.448-.8-4.416-2.38-5.904-1.54-1.488-3.62-2.232-6.26-2.232-2.07 0-3.82.432-5.26 1.296-1.39.864-2.45 2.16-3.17 3.888q-1.08 2.592-1.08 6.336c0 3.84.82 6.744 2.45 8.712 1.68 1.968 4.15 2.952 7.42 2.952 2.4 0 4.36-.456 5.9-1.368 1.58-.912 2.62-2.208 3.1-3.888h8.13q-1.155 5.832-5.76 9.144-4.53 3.312-11.52 3.312m37.34 0c-3.45 0-6.43-.768-8.92-2.304q-3.675-2.376-5.76-6.552c-1.35-2.784-2.02-6.024-2.02-9.72s.67-6.96 2.02-9.792q2.085-4.32 5.97-6.768c2.59-1.632 5.67-2.448 9.22-2.448q3.735 0 6.84 1.512c2.06.96 3.65 2.328 4.75 4.104v-22.536h8.71V155h-8.06l-.58-5.544c-1.05 2.016-2.69 3.6-4.89 4.752-2.16 1.152-4.59 1.728-7.28 1.728m1.95-8.064c2.06 0 3.84-.432 5.33-1.296 1.48-.912 2.64-2.184 3.45-3.816.87-1.68 1.3-3.576 1.3-5.688 0-2.16-.43-4.032-1.3-5.616-.81-1.632-1.97-2.904-3.45-3.816-1.49-.96-3.27-1.44-5.33-1.44-2.02 0-3.77.48-5.26 1.44q-2.235 1.368-3.45 3.816c-.77 1.632-1.16 3.504-1.16 5.616s.39 3.984 1.16 5.616q1.215 2.448 3.45 3.816c1.49.912 3.24 1.368 5.26 1.368m23.84-3.672h8.35c.05 1.536.63 2.76 1.73 3.672s2.64 1.368 4.61 1.368c2.11 0 3.69-.384 4.75-1.152 1.1-.768 1.66-1.8 1.66-3.096q0-1.296-.87-2.304-.855-1.008-3.24-1.512l-6.41-1.512q-4.815-1.08-7.2-3.456c-1.53-1.632-2.3-3.864-2.3-6.696q0-3.456 1.8-5.976 1.875-2.52 5.04-3.816c2.11-.912 4.54-1.368 7.27-1.368q3.96 0 6.99 1.44 3.015 1.44 4.68 4.032 1.725 2.592 1.8 6.048h-8.36q0-2.304-1.44-3.6c-.96-.912-2.3-1.368-4.03-1.368s-3.07.384-4.03 1.152q-1.44 1.152-1.44 3.096c0 1.968 1.54 3.312 4.61 4.032l6.41 1.512q4.455 1.008 6.69 3.24 2.31 2.232 2.31 6.336c0 2.4-.63 4.488-1.88 6.264-1.24 1.728-3 3.072-5.25 4.032-2.26.912-4.85 1.368-7.78 1.368-4.41 0-7.94-1.08-10.58-3.24-2.59-2.16-3.89-4.992-3.89-8.496"/><path fill="#39ff14" d="M1360.12 119.432h22.32v7.344h-22.32zm22.39-17.64v7.488h-3.02c-2.21 0-3.7.528-4.46 1.584q-1.08 1.584-1.08 4.248V155h-8.72v-39.888q0-4.896 1.59-7.848c1.05-2.016 2.54-3.48 4.46-4.392 1.92-.96 4.15-1.44 6.7-1.44.72 0 1.46.024 2.23.072.82.048 1.58.144 2.3.288m.96 35.352c0-3.696.81-6.936 2.44-9.72 1.64-2.832 3.89-5.04 6.77-6.624s6.15-2.376 9.79-2.376c3.7 0 6.96.792 9.8 2.376 2.88 1.584 5.13 3.792 6.76 6.624 1.64 2.784 2.45 6.024 2.45 9.72s-.81 6.96-2.45 9.792c-1.63 2.784-3.88 4.968-6.76 6.552-2.84 1.584-6.1 2.376-9.8 2.376-3.64 0-6.91-.792-9.79-2.376s-5.13-3.768-6.77-6.552c-1.63-2.832-2.44-6.096-2.44-9.792m8.78 0c0 2.16.43 4.056 1.3 5.688q1.365 2.448 3.6 3.816c1.53.912 3.31 1.368 5.32 1.368 2.02 0 3.8-.456 5.33-1.368q2.31-1.368 3.6-3.816c.87-1.632 1.3-3.528 1.3-5.688 0-2.208-.43-4.104-1.3-5.688q-1.29-2.448-3.6-3.816c-1.53-.912-3.31-1.368-5.33-1.368-2.01 0-3.79.456-5.32 1.368q-2.235 1.368-3.6 3.816c-.87 1.584-1.3 3.48-1.3 5.688m57.07-17.856v8.136h-3.24q-4.815 0-7.56 2.592-2.73 2.52-2.73 7.704V155H1427v-35.496h8.28l.72 7.344h-.86c.48-2.352 1.61-4.272 3.38-5.76 1.78-1.488 4.08-2.232 6.92-2.232.62 0 1.24.024 1.87.072q.93.072 2.01.36M1462.61 155h-8.78v-35.568h8.06l1.08 6.336-1-.864q1.08-2.592 3.96-4.536 2.88-2.016 7.2-2.016c3.12 0 5.66.816 7.63 2.448 2.01 1.632 3.41 3.792 4.17 6.48h-1.44c.53-2.688 1.88-4.848 4.04-6.48 2.2-1.632 4.87-2.448 7.99-2.448q6.48 0 9.93 3.672c2.31 2.4 3.46 5.64 3.46 9.72V155h-8.71v-20.952q0-3.816-1.95-5.76-1.86-2.016-5.04-2.016c-1.34 0-2.59.312-3.74.936-1.1.624-1.99 1.56-2.66 2.808-.68 1.248-1.01 2.856-1.01 4.824V155h-8.79v-21.024c0-2.496-.62-4.392-1.87-5.688s-2.9-1.944-4.97-1.944q-2.085 0-3.81.936c-1.15.576-2.07 1.512-2.74 2.808-.67 1.248-1.01 2.832-1.01 4.752zm59.39.864q-2.385 0-4.11-1.656c-1.15-1.104-1.73-2.448-1.73-4.032s.58-2.928 1.73-4.032q1.725-1.728 4.11-1.728c1.58 0 2.95.576 4.1 1.728 1.15 1.104 1.73 2.448 1.73 4.032s-.58 2.928-1.73 4.032-2.52 1.656-4.1 1.656"/><path fill="#2a2a2a" d="m824.776 213-6.624-22.336H821l3.168 11.168 2.4 8.448h.16l2.4-8.448 3.168-11.168h2.752L828.424 213zm21.78 0v-2.144h5.568v-18.048h-5.568v-2.144h13.824v2.144h-5.568v18.048h5.568V213zm33.715.384q-3.008 0-4.928-1.088a10.2 10.2 0 0 1-3.168-2.848l1.952-1.6q1.312 1.632 2.752 2.432 1.472.8 3.488.8 2.432 0 3.712-1.12t1.28-3.136q0-1.632-.928-2.528-.928-.928-3.232-1.312l-2.496-.416q-1.632-.288-2.752-.864-1.088-.576-1.76-1.376a5.2 5.2 0 0 1-.96-1.792 7.3 7.3 0 0 1-.288-2.048q0-3.072 2.016-4.64t5.44-1.568q2.688 0 4.512.896 1.856.896 2.976 2.528l-1.888 1.632a7.7 7.7 0 0 0-2.24-1.984q-1.312-.768-3.392-.768-2.272 0-3.488.96t-1.216 2.88q0 1.504.896 2.464.928.928 3.296 1.344l2.4.416q1.632.288 2.752.864t1.792 1.376q.704.8.992 1.792t.288 2.08q0 3.104-2.048 4.864-2.016 1.76-5.76 1.76m20.02-.384v-2.144h5.568v-18.048h-5.568v-2.144h13.824v2.144h-5.568v18.048h5.568V213zm33.779.384q-2.048 0-3.52-.768-1.472-.8-2.432-2.272t-1.408-3.616-.448-4.896q0-2.72.448-4.864.448-2.177 1.408-3.648t2.432-2.24q1.472-.8 3.52-.8t3.52.8q1.472.768 2.432 2.24.96 1.471 1.408 3.648.448 2.144.448 4.864 0 2.753-.448 4.896-.448 2.144-1.408 3.616t-2.432 2.272q-1.472.768-3.52.768m0-2.336q1.344 0 2.272-.512a4.5 4.5 0 0 0 1.536-1.504q.607-.96.864-2.304.288-1.376.288-3.072v-3.648q0-1.664-.288-3.04-.256-1.376-.864-2.336a4.2 4.2 0 0 0-1.536-1.472q-.928-.544-2.272-.544t-2.272.544a4.2 4.2 0 0 0-1.536 1.472q-.608.96-.896 2.336a16.6 16.6 0 0 0-.256 3.04v3.648q0 1.696.256 3.072.288 1.344.896 2.304t1.536 1.504q.928.512 2.272.512m22.483-16.864h-.224V213h-2.432v-22.336h3.808l7.616 18.816h.224v-18.816h2.432V213h-3.808zm53.737 0h-.23V213h-2.43v-22.336h3.81l7.62 18.816h.22v-18.816h2.43V213h-3.81zM1034.82 213v-22.336h13.76V193h-11.07v7.52h10.69v2.336h-10.69v7.808h11.07V213zm26.87 0v-22.336h13.76V193h-11.07v7.52h10.68v2.336h-10.68v7.808h11.07V213zm27.02-22.336h6.24c2.74 0 4.77.939 6.12 2.816q2.01 2.816 2.01 8.352t-2.01 8.352c-1.35 1.877-3.38 2.816-6.12 2.816h-6.24zm6.12 20c1.79 0 3.13-.619 4.03-1.856.92-1.237 1.37-2.987 1.37-5.248v-3.456c0-2.261-.45-4.011-1.37-5.248-.9-1.237-2.24-1.856-4.03-1.856h-3.43v17.664zm27.25 2.72c-2.01 0-3.65-.363-4.93-1.088-1.28-.747-2.34-1.696-3.17-2.848l1.95-1.6q1.32 1.632 2.76 2.432 1.47.8 3.48.8c1.63 0 2.86-.373 3.72-1.12.85-.747 1.28-1.792 1.28-3.136q0-1.632-.93-2.528c-.62-.619-1.7-1.056-3.23-1.312l-2.5-.416c-1.09-.192-2-.48-2.75-.864-.73-.384-1.31-.843-1.76-1.376a5.2 5.2 0 0 1-.96-1.792 7.4 7.4 0 0 1-.29-2.048c0-2.048.67-3.595 2.02-4.64 1.34-1.045 3.15-1.568 5.44-1.568 1.79 0 3.29.299 4.51.896q1.86.896 2.97 2.528l-1.88 1.632a7.7 7.7 0 0 0-2.24-1.984c-.88-.512-2.01-.768-3.4-.768q-2.265 0-3.48.96c-.81.64-1.22 1.6-1.22 2.88q0 1.504.9 2.464c.62.619 1.71 1.067 3.29 1.344l2.4.416c1.09.192 2.01.48 2.75.864q1.125.576 1.8 1.376.705.8.99 1.792c.19.661.29 1.355.29 2.08 0 2.069-.69 3.691-2.05 4.864q-2.025 1.76-5.76 1.76m53.73 0q-3 0-4.92-1.088c-1.28-.747-2.34-1.696-3.17-2.848l1.95-1.6c.87 1.088 1.79 1.899 2.75 2.432.98.533 2.15.8 3.49.8 1.62 0 2.86-.373 3.71-1.12s1.28-1.792 1.28-3.136q0-1.632-.93-2.528c-.62-.619-1.69-1.056-3.23-1.312l-2.49-.416q-1.635-.288-2.76-.864c-.72-.384-1.31-.843-1.76-1.376a5.5 5.5 0 0 1-.96-1.792 7.4 7.4 0 0 1-.28-2.048q0-3.072 2.01-4.64c1.35-1.045 3.16-1.568 5.44-1.568 1.79 0 3.3.299 4.51.896 1.24.597 2.23 1.44 2.98 2.528l-1.89 1.632a7.6 7.6 0 0 0-2.24-1.984q-1.305-.768-3.39-.768c-1.52 0-2.68.32-3.49.96s-1.21 1.6-1.21 2.88c0 1.003.29 1.824.89 2.464q.93.928 3.3 1.344l2.4.416c1.09.192 2 .48 2.75.864s1.34.843 1.79 1.376q.705.8.99 1.792c.2.661.29 1.355.29 2.08 0 2.069-.68 3.691-2.05 4.864q-2.01 1.76-5.76 1.76M1204.09 193v20h-2.69v-20h-7.46v-2.336h17.6V193zm21.49 20h-2.69v-22.336h8.13q3.105 0 4.74 1.696c1.08 1.131 1.63 2.709 1.63 4.736q0 2.72-1.41 4.352c-.94 1.088-2.3 1.717-4.1 1.888l5.7 9.664h-3.01l-5.44-9.536h-3.55zm5.38-11.808c1.13 0 2-.277 2.62-.832q.96-.864.96-2.432v-1.664q0-1.567-.96-2.4c-.62-.576-1.49-.864-2.62-.864h-5.38v8.192zm21.17-10.528v13.408q0 1.632.09 2.912c.07.853.24 1.589.52 2.208.27.597.7 1.056 1.28 1.376q.885.48 2.46.48t2.43-.48c.6-.32 1.04-.779 1.31-1.376.28-.619.45-1.355.52-2.208q.09-1.28.09-2.912v-13.408h2.69v12.768c0 1.664-.09 3.115-.26 4.352q-.225 1.856-.99 3.104c-.49.832-1.2 1.461-2.14 1.888-.92.405-2.14.608-3.65.608s-2.74-.203-3.68-.608a4.83 4.83 0 0 1-2.14-1.888c-.49-.832-.83-1.867-1-3.104-.15-1.237-.22-2.688-.22-4.352v-12.768zm31.95 22.72c-2.73 0-4.76-.992-6.11-2.976q-1.98-2.976-1.98-8.576t1.98-8.576c1.35-1.984 3.38-2.976 6.11-2.976 1.03 0 1.91.139 2.66.416q1.125.416 1.92 1.12c.53.469.98 1.003 1.34 1.6q.555.864.96 1.76l-2.3 1.056a9.5 9.5 0 0 0-.67-1.376 4.7 4.7 0 0 0-.93-1.152 3.6 3.6 0 0 0-1.25-.8c-.47-.192-1.04-.288-1.73-.288q-2.655 0-3.96 2.016c-.86 1.344-1.28 3.136-1.28 5.376v3.648c0 2.24.42 4.032 1.28 5.376q1.305 2.016 3.96 2.016c.69 0 1.26-.096 1.73-.288.49-.192.91-.448 1.25-.768q.54-.512.93-1.152c.25-.448.48-.917.67-1.408l2.3 1.056q-.405.928-.96 1.792a7.2 7.2 0 0 1-1.34 1.568q-.795.704-1.92 1.12c-.75.277-1.63.416-2.66.416M1311.56 193v20h-2.69v-20h-7.46v-2.336h17.6V193zm21.17-2.336v13.408c0 1.088.03 2.059.1 2.912q.09 1.28.51 2.208c.28.597.7 1.056 1.28 1.376q.9.48 2.46.48 1.575 0 2.43-.48.9-.48 1.32-1.376.405-.928.51-2.208.09-1.28.09-2.912v-13.408h2.69v12.768c0 1.664-.08 3.115-.25 4.352-.15 1.237-.48 2.272-1 3.104-.49.832-1.2 1.461-2.14 1.888-.92.405-2.13.608-3.65.608-1.51 0-2.74-.203-3.68-.608-.91-.427-1.63-1.056-2.14-1.888q-.735-1.248-.99-3.104c-.15-1.237-.23-2.688-.23-4.352v-12.768zM1359.92 213h-2.69v-22.336h8.13c2.07 0 3.65.565 4.73 1.696 1.09 1.131 1.64 2.709 1.64 4.736q0 2.72-1.41 4.352c-.94 1.088-2.31 1.717-4.1 1.888l5.7 9.664h-3.01l-5.44-9.536h-3.55zm5.37-11.808c1.13 0 2.01-.277 2.63-.832q.96-.864.96-2.432v-1.664q0-1.567-.96-2.4c-.62-.576-1.5-.864-2.63-.864h-5.37v8.192zM1384.1 213v-22.336h13.76V193h-11.07v7.52h10.68v2.336h-10.68v7.808h11.07V213zm33.59.288q-1.32 0-1.86-.544-.51-.544-.51-1.376v-.576q0-.832.51-1.376.54-.544 1.86-.544c.87 0 1.48.181 1.82.544q.54.544.54 1.376v.576q0 .832-.54 1.376c-.34.363-.95.544-1.82.544"/><path stroke="#2a2a2a" d="M775.5 53v210"/><path fill="#39ff14" d="M703 232h30v30h-30z"/><path fill="#2a2a2a" d="M66.275 108.275v16.775H124.3v14.575H66.275V262h-17.6V139.625H8.525V125.05h40.15v-18.425c0-28.6 15.4-43.175 44.55-43.175 12.65 0 24.2 2.75 34.925 8.525l-5.225 14.85C113.575 81.875 104.5 79.4 94.6 79.4c-19.25 0-28.325 9.35-28.325 28.875M222.361 265.3c-45.65 0-76.175-29.15-76.175-71.775 0-42.9 30.525-71.775 76.175-71.775 45.375 0 76.175 28.875 76.175 71.775 0 42.625-30.8 71.775-76.175 71.775m0-15.95c34.65 0 58.025-22.825 58.025-55.825 0-33.275-23.375-55.825-58.025-55.825-34.925 0-58.3 22.55-58.3 55.825 0 33 23.375 55.825 58.3 55.825m196.911-127.6c4.125 0 8.25.275 11.275.825l-1.1 17.6c-3.575-.825-8.8-1.1-12.65-1.1-24.475 0-44.275 10.175-61.325 31.625V262h-17.6V125.05h17.6v30.525c16.5-22.275 36.575-33.825 63.8-33.825m214.515 0c30.25 0 47.025 19.525 47.025 53.35V262h-17.6v-84.15c0-26.125-11.275-40.15-34.375-40.15-19.525 0-35.475 9.9-48.675 27.225.275 3.3.55 6.6.55 10.175V262h-17.6v-84.15c0-26.125-11.55-40.15-33.275-40.15-19.525 0-35.75 11-48.95 30.525V262h-17.6V125.05h17.6v28.05c14.575-20.9 32.45-31.35 53.9-31.35 21.725 0 36.85 11.275 42.9 31.35 14.3-19.25 32.45-31.35 56.1-31.35"/></svg>