<svg xmlns="http://www.w3.org/2000/svg" width="1796" height="592" fill="none" viewBox="0 0 1796 592"><path fill="#39ff14" d="M1710.63 491.482H1796v85.426h-85.37z"/><path fill="#0a0a0a" d="M0 195.767h242.587v79.873H0zM243.37 3.915v81.44h-32.867q-35.997 0-48.517 17.227-11.738 17.227-11.738 46.201v433.82H55.56v-433.82q0-53.248 17.216-85.354 17.216-32.89 48.518-47.768Q152.594.001 194.07 0q11.738 0 24.259.783 13.302.783 25.041 3.132M269.365 388.402q0-60.296 26.606-105.714 26.606-46.201 73.559-72.043 46.953-25.84 106.425-25.841 60.256 0 106.426 25.841 46.952 25.842 73.559 72.043 26.606 45.418 26.606 105.714T655.94 494.899q-26.607 45.418-73.559 71.26-46.17 25.84-106.426 25.841-59.472 0-106.425-25.841t-73.559-71.26q-26.606-46.2-26.606-106.497m95.47 0q0 35.238 14.085 61.863 14.87 26.623 39.127 41.502 25.042 14.878 57.908 14.878t57.908-14.878 39.127-41.502q14.086-26.625 14.086-61.863 0-36.021-14.086-61.862-14.085-26.625-39.127-41.503-25.041-14.878-57.908-14.878-32.866 0-57.908 14.878-24.258 14.878-39.127 41.503-14.085 25.84-14.085 61.862M1000.81 194.201v88.487h-35.217q-52.43 0-82.167 28.19-29.736 27.408-29.736 83.789v187.936h-95.47V196.55h89.992l7.825 79.873h-9.39q7.826-38.37 36.779-62.645t75.124-24.275q10.173 0 20.346.783t21.914 3.915M1160.9 582.603h-95.47V195.767h87.64l11.74 68.91-10.96-9.397c7.83-18.793 22.18-35.238 43.04-49.333 20.87-14.617 46.96-21.926 78.26-21.926q50.865 0 82.95 26.624 32.865 26.625 45.39 70.477h-15.66q8.61-43.852 43.83-70.477c23.99-17.749 52.95-26.624 86.86-26.624 46.95 0 82.95 13.312 107.99 39.937q37.56 39.153 37.56 105.714v252.931h-94.69V354.73q0-41.502-21.12-62.645-20.355-21.926-54.78-21.926c-14.61 0-28.17 3.393-40.69 10.18-12 6.786-21.66 16.966-28.96 30.539q-10.95 20.36-10.95 52.466v219.259h-95.47V353.947c0-27.146-6.79-47.767-20.35-61.862q-20.34-21.144-54-21.143c-15.12 0-28.95 3.393-41.47 10.18-12.52 6.264-22.43 16.444-29.74 30.539q-10.95 20.36-10.95 51.683z"/></svg>