<svg xmlns="http://www.w3.org/2000/svg" width="2563" height="1250" fill="none" viewBox="0 0 2563 1250"><path fill="#39ff14" d="M2473 861h90v90h-90z"/><path fill="#fffefe" d="M230 386v68h217v39H230v458h-46V493H32v-39h152v-73c0-100 53-152 154-152 45 0 86 11 123 32l-15 37c-34-18-68-27-105-27-75 0-111 38-111 115m551.727 577c-162 0-274-106-274-261 0-154 112-260 274-260 163 0 274.003 106 274.003 260 0 155-111.003 261-274.003 261m0-42c135 0 227.003-89 227.003-219 0-129-92.003-219-227.003-219-134 0-226 90-226 219 0 130 92 219 226 219m689.043-479c15 0 30 1 40 3l-2 46c-12-2-30-3-44-3-91 0-167 40-233 122v341h-46V454h46v113c63-82 141-125 239-125m757.21 0c109 0 169 71 169 195v314h-46V643c0-102-45-160-134-160-75 0-137 39-191 110 2 14 3 29 3 44v314h-46V643c0-102-46-160-131-160-74 0-138 43-191 120v348h-46V454h46v105c57-78 124-117 202-117 80 0 135 42 156 117 54-72 122-117 209-117"/></svg>