<svg xmlns="http://www.w3.org/2000/svg" width="2000" height="530" viewBox="0 0 2000 530" fill="none">
<g clip-path="url(#clip0_4_6490)">
<path d="M373.116 107.426C383.844 98.9605 410.598 101.321 423.292 105.2C423.859 105.373 425.39 106.863 426.522 107.328C471.305 112.511 520.665 129.958 512.545 185.574C506.348 228.023 461.011 268.829 429.605 295.06C388.934 326.693 339.373 360.904 291.719 381.006C289.285 382.033 279.369 386.045 277.617 386.17C267.677 392.88 190.392 421.966 189.944 397.8C191.538 392.338 195.762 388.28 200.197 384.948C213.061 376.669 255.406 358.11 262.465 349.486C276.916 331.83 296.105 288.307 307.69 267.406C325.283 235.714 340.627 202.938 357.615 170.945C362.049 162.595 377.395 120.152 386.07 118.969C389.418 126.811 379.462 143.703 376.194 151.402C368.389 169.792 359.07 187.978 349.771 205.6L301.901 298.177C293.698 313.83 283.335 330.775 276.039 346.49C313.397 324.214 359.588 307.256 398.436 286.983C416.255 278.116 435.441 270.474 451.537 258.373C479.981 236.99 512.395 195.864 500.822 157.757C491.365 126.619 455.849 118.678 427.374 115.584C376.666 110.075 326.776 118.586 278.881 135.54C258.526 142.666 238.519 148.995 220.332 161.096C214.378 164.989 200.964 175.317 194.986 177.348C192.364 176.382 193.187 177.066 191.781 174.543C193.575 158.324 260.128 133.561 276.085 127.713C308.044 116.003 339.282 109.298 373.116 107.426Z" fill="#39FF14"/>
<path d="M233.177 392.94L241.941 384.538L241.883 384.823C239.26 397.024 227.619 393.496 225.339 398.441C229.928 408.062 267.812 384.428 277.617 386.171C267.677 392.881 190.392 421.967 189.944 397.802C191.538 392.34 195.762 388.281 200.197 384.949C196.391 393.269 191.212 394.01 193.254 400.645C194.859 402.173 195.951 403.528 198.151 403.773C200.722 398.719 195.798 395.539 199.998 391.34C200.443 391.314 202.998 391.125 203.215 391.208L202.001 393.698L203.434 395.099C209.125 397.235 226.319 393.942 233.177 392.94Z" fill="#39FF14"/>
<path d="M203.215 391.208C210.54 389.42 249.167 368.108 250.475 368.35C251.682 374.922 245.808 378.064 241.941 384.539L233.177 392.941C226.319 393.943 209.125 397.235 203.434 395.1L202.001 393.699L203.215 391.208Z" fill="#39FF14"/>
<path d="M373.116 107.426C383.844 98.9605 410.598 101.321 423.292 105.2C423.859 105.373 425.39 106.863 426.522 107.328L373.116 107.426Z" fill="#39FF14"/>
<path d="M428.843 281.024L430.065 281.245L429.866 282.451C405.192 300.009 381.68 321.097 355.786 337.547C342.935 347.977 322.689 354.857 309.8 364.147C293.574 375.84 266.646 379.531 252.407 388.535L251.174 388.941C250.483 382.452 266.992 359.96 272.794 356.565C296.738 342.552 324.506 331.297 349.985 320.164C377.434 308.172 402.289 294.189 428.843 281.024Z" fill="#39FF14"/>
<path d="M682.477 206.37C685.35 206.235 693.624 206.009 694.979 204.37C709.926 186.27 719.566 160.165 735.097 142.656C736.604 140.958 738.606 141.263 740.47 141.581L741.365 143.656C740.687 154.018 731.253 175.905 724.371 183.749C718.733 190.176 714.194 194.197 709.168 201.772C726.278 203.24 754.5 202.374 772.207 202.396C787.846 201.912 854.808 199.103 864.035 204.488C861.01 207.462 850.276 208.469 846.029 208.255C822.655 207.079 798.119 208.82 774.917 208.045C753.757 210.037 732.081 208.29 710.943 211.543C708.215 211.962 705.017 212.388 702.271 212.602C695.085 228.573 687.538 235.225 681.178 248.169C671.607 267.774 662.879 287.781 655.016 308.13C651.33 317.667 642.444 348.864 633.682 352.565C632.486 351.818 632.298 352.017 632.043 350.971C626.689 329.052 646.431 301.085 656.147 280.368C661.581 268.853 666.067 256.914 669.561 244.669C653.152 269.738 634.197 282.59 606.586 294.782C589.212 279.332 596.359 273.906 606.371 255.776C579.723 270.138 573.329 281.086 552.53 296.162C550.113 293.372 547.561 290.576 545.529 287.5C553.083 276.455 557.801 268.572 561.108 255.386C551.196 262.739 500.293 307.485 484.059 291.572C483.087 290.619 478.943 281.138 478.243 279.359C484.623 259.348 504.054 242.663 525.623 245.009C531.78 245.678 536.59 256.672 530.159 263.001C535.717 262.496 564.39 240.801 576.291 246.534C579.771 252.275 571.056 261.433 568.95 269.639C580.31 259.967 592.283 249.326 607.229 245.754C611.67 249.307 613.232 250.562 616.73 254.986C612.954 264.757 607.771 275.363 605.063 285.092C623.276 278.965 688.886 233.913 687.491 216.027L686.355 214.196C683.665 213.644 682.905 213.716 680.145 213.902C684.369 211.555 681.1 209.637 682.477 206.37Z" fill="#39FF14"/>
<path d="M772.207 202.395C787.846 201.911 854.807 199.102 864.035 204.487C861.01 207.461 850.276 208.468 846.029 208.255C822.655 207.079 798.119 208.82 774.917 208.045C767.33 206.957 754.726 208.174 745.814 207.315C748.534 207.19 755.914 207.299 757.753 205.769L758.434 206.194C754.938 204.524 748.302 204.023 744.224 203.511C748.761 203.426 769.701 204.031 772.207 202.395Z" fill="#39FF14"/>
<path d="M521.343 253.575C524.784 255.216 526.11 259.958 524.309 263.038C517.563 274.576 504.664 282.323 492.644 286.901L489.999 284.562C487.247 274.032 512.814 256.811 521.343 253.575Z" fill="#39FF14"/>
<path d="M1268.82 238.369C1270.38 242.418 1271.81 247.833 1273.06 252.084C1281.94 254.658 1291.33 238.135 1294.67 231.722C1307.96 205.583 1324.36 181.322 1339.98 156.68C1346.63 143.828 1371.26 127.991 1363.62 156.606C1349.24 210.802 1289.62 233.367 1278.31 289.663C1276.11 300.61 1263.94 306.235 1269.27 315.585L1271.01 315.068L1272.63 311.442L1275.27 315.258C1271.54 320.067 1268.95 324.701 1262.97 325.706C1259.44 324.914 1260.57 325.664 1258.49 322.709C1255.18 305.925 1271.84 276.645 1279.8 262.341C1269.14 267.85 1259.83 278.105 1248.49 283.882C1235.4 290.541 1213.92 298.364 1211.47 276.51C1206.28 274.722 1189.43 287.514 1181.91 288.644C1166.28 290.996 1161.79 294.338 1157.16 277.033C1148.87 277.157 1131.85 297.557 1122.92 294.112C1095.87 283.672 1122.39 261.727 1135.5 253.05C1149.01 244.101 1157.31 246.151 1171.93 249.384C1171.72 260.077 1168.73 270.884 1168.73 280.061C1175.56 283.713 1209.54 269.175 1215.9 264.65C1235.48 250.704 1245.42 244.942 1268.82 238.369Z" fill="#39FF14"/>
<path d="M1257.42 249.728C1260.14 249.58 1263.76 250.501 1265.76 252.391C1265.51 255.227 1245.82 273.332 1242.58 275.779C1240.68 277.217 1234.48 280.074 1231.93 281.154L1227.81 281.927C1224.97 280.904 1225.8 281.647 1224.4 279.021C1225.13 269.509 1248.7 253.666 1257.42 249.728Z" fill="#39FF14"/>
<path d="M1358.2 150.168C1359.65 160.495 1323.18 207.211 1314.55 217.223C1312.91 211.103 1350.32 155.308 1358.2 150.168Z" fill="#39FF14"/>
<path d="M1160.48 252.875L1161.58 253.293C1161.34 263.143 1133.97 279.925 1125.31 283.364L1123.41 281.735C1121.66 270.74 1151.04 255.653 1160.48 252.875Z" fill="#39FF14"/>
<path d="M1436.02 262.355C1445.86 253.588 1469.42 237.615 1482.61 242.779L1483.27 244.45C1482.45 249.067 1477.18 257.055 1474.51 261.815C1480.81 255.55 1512.74 234.431 1521.24 246.1C1525.98 252.599 1518.04 267.819 1516.17 276.298C1515.81 281.236 1517.37 282.552 1517.54 285.819C1509.62 283.956 1508.08 279.538 1504.77 273.035C1506.81 267.525 1512.2 260.039 1515.37 251.741C1500.39 253.918 1484.45 265.925 1472.8 275.266C1468.14 279.004 1458.68 290.151 1452.69 288.084C1449.56 281.356 1463.11 259.508 1466.82 252.989C1446.46 261.014 1431.77 278.488 1410.71 286.332C1391.56 293.469 1386.37 291.594 1379.63 272.576C1367.42 281.856 1356.61 291.959 1345.21 302.203C1337.32 309.3 1312.89 316.568 1312.06 300.45L1313.49 298.919C1320.79 297.428 1321.55 303.189 1326.98 303.417C1333.12 303.674 1342.04 291.744 1342.81 286.323C1342.94 285.423 1341.3 284.321 1340.61 283.701C1336.29 281.326 1337.57 282.59 1335.26 278.133C1339.45 271.723 1346.27 261.924 1349.2 255.242C1344.39 259.925 1339.6 264.897 1334.56 269.285C1315.3 286.04 1291.56 295.098 1275.27 315.256L1272.63 311.441C1272.86 310.758 1273.12 310.083 1273.41 309.42C1275.22 305.183 1278.17 299.62 1281.76 296.639C1295.05 285.61 1310.37 276.612 1324.7 267.112C1335.4 260.012 1343.96 250.781 1355.98 245.965C1358.81 246.009 1359.3 246.222 1361.65 247.803C1365.34 257.326 1352.27 261.113 1354.42 279.877L1355.74 279.815C1359.31 274.549 1373.86 268.714 1379.67 264.787C1387.22 260.676 1394.21 253.618 1401.93 249.938C1420.72 240.977 1431.31 242.124 1436.02 262.355Z" fill="#39FF14"/>
<path d="M1417.6 253.534L1421.31 254.102L1422.65 256.141C1422.62 266.277 1405.49 278.544 1396.8 281.759C1392.43 280.921 1391.63 281.042 1391.6 276.878C1394.81 269.829 1410.8 257.415 1417.6 253.534Z" fill="#39FF14"/>
<path d="M826.214 243.133C833.203 242.728 837.52 246.49 842.462 250.752C828.778 269.117 821.441 269.444 804.861 278.057C803.627 280.754 803.773 279.648 804.786 282.829C819.163 294.984 890.869 253.992 892.108 254.122L892.646 256.744C890.967 264.115 880.061 269.076 873.884 272.626C852.082 285.154 830.504 292.016 805.285 292.319C797.336 288.51 794.309 285.442 788.589 279.138C776.82 287.346 764.561 295.601 750.974 287.807C744.869 277.939 751.985 268.851 756.951 260.077C732.866 276.458 735.413 282.703 706.105 294.141C699.956 289.211 697.789 285.824 694.096 279.164C701.014 271.178 723.598 253.663 734.31 252.528C740.338 254.752 735.564 258.403 737.509 261.958C744.554 258.593 756.597 241.541 764.759 247.609C774.354 254.741 756.967 273.001 760.038 282.285C763.007 283.716 767.944 281.302 770.81 280.155C793.37 271.127 802.389 249.809 826.214 243.133Z" fill="#39FF14"/>
<path d="M725.486 266.613L726.27 267.793C720.775 276.028 716.711 279.607 708.6 285.135C704.775 270.915 714.323 270.069 725.486 266.613Z" fill="#39FF14"/>
<path d="M828.213 248.842L829.253 249.89L829.174 251.718C824.175 259.497 815.594 264.957 807.033 268.107L806.484 268.144L805.934 267.291C810.98 259.026 819.832 253.232 828.213 248.842Z" fill="#39FF14"/>
<path d="M1100.99 163.309C1107.81 159.55 1105.96 148.511 1116.76 154.754C1118.24 155.614 1119.3 155.574 1120.39 157.106C1119.38 160.221 1109.87 162.797 1107.76 173.616C1079.76 218.298 1050.21 261.999 1019.18 304.64C1012.6 313.809 997.227 336.86 989.912 343.68C985.059 345.469 978.926 354.361 977.686 359.287C978.262 359.741 978.643 359.884 978.887 360.472C972.656 363.898 955.82 377.605 954.27 384.549C949.275 393.942 913.017 401.255 912.943 390.24C912.767 363.821 962.49 364.263 975.645 348.089C1004.65 312.431 1029.69 274.773 1054.92 236.605C1070.68 212.757 1087.78 188.36 1100.99 163.309Z" fill="#39FF14"/>
<path d="M955.168 369.027C955.916 369.37 957.088 370.486 957.76 371.071C956.715 379.394 932.963 387.745 925.315 387.817L922.273 385.392C920.581 377.393 948.154 371.203 955.168 369.027Z" fill="#39FF14"/>
<path d="M982.119 355.304C999.971 343.467 1024.15 344.258 1044.37 339.935C1095.13 329.086 1145.51 326.548 1197.25 327.897C1203.29 328.055 1228.46 326.623 1231.75 329.847C1232.01 332.583 1232.58 334.938 1230.95 337.137C1226.49 339.512 1150.02 337.428 1137.06 338.377C1085.02 342.193 1027.02 346.626 977.129 363.895C969.306 366.602 961.88 379.786 954.269 384.548C955.82 377.604 972.656 363.897 978.887 360.471C978.642 359.883 978.262 359.74 977.685 359.286C978.926 354.36 985.058 345.468 989.912 343.679C987.363 347.585 984.766 351.46 982.119 355.304Z" fill="#39FF14"/>
<path d="M1100.99 163.307C1106.9 149.869 1135.79 93.7714 1152.72 100.159C1165.4 115.663 1116.74 162.805 1107.76 173.614C1109.87 162.796 1119.38 160.22 1120.39 157.104C1119.3 155.573 1118.24 155.613 1116.76 154.753C1105.96 148.51 1107.81 159.548 1100.99 163.307Z" fill="#39FF14"/>
<path d="M1138.48 118.833C1139.32 119.621 1139.05 119.463 1139.3 120.867C1137.02 125.86 1131.03 133.108 1127.46 137.738L1126.73 137.226C1126.68 132.264 1135.17 122.87 1138.48 118.833Z" fill="#39FF14"/>
<path d="M1620.29 269.886C1633.16 266.682 1658.96 264.783 1672.49 262.038C1681.84 260.142 1750.68 257.913 1754.94 260.1C1755.95 262.85 1755.63 262.074 1755.11 265.363C1752.78 267.126 1708.5 269.219 1701.16 269.63C1674.73 271.108 1646.73 277.207 1620.55 277.537C1620.91 274.493 1621.3 272.846 1620.29 269.886Z" fill="#39FF14"/>
<path d="M1516.17 276.299C1523.31 278.477 1607.99 271.494 1620.29 269.887C1621.3 272.847 1620.91 274.495 1620.55 277.538C1584.15 279.269 1555.01 286.456 1517.54 285.821C1517.37 282.553 1515.81 281.237 1516.17 276.299Z" fill="#39FF14"/>
<path d="M591.144 207.973C621.839 206.191 651.89 207.875 682.477 206.37C681.1 209.637 684.369 211.555 680.145 213.901C647.494 217.521 624.504 217.637 591.664 217.794L591.144 207.973Z" fill="#39FF14"/>
<path d="M1335.26 278.134C1337.57 282.59 1336.29 281.326 1340.61 283.702C1332.04 284.433 1325.68 291.453 1320.82 290.77C1324.37 286.674 1330.69 282.365 1335.26 278.134Z" fill="#39FF14"/>
</g>
<defs>
<clipPath id="clip0_4_6490">
<rect width="2000" height="530" fill="#39FF14"/>
</clipPath>
</defs>
</svg>