<svg xmlns="http://www.w3.org/2000/svg" width="716" height="166" fill="none" viewBox="0 0 716 166"><path fill="#0a0a0a" d="M2.008 38.432h22.464v7.344H2.008zM17.632 74H8.848V27.344h8.784zm19.717 0h-8.784V20.432h8.856V43.04q1.656-2.592 4.608-4.104 3.024-1.584 6.912-1.584 6.552 0 9.936 3.96 3.456 3.96 3.456 10.8V74h-8.784V54.2q0-3.024-.936-4.968t-2.592-2.88q-1.656-1.008-3.888-1.008-2.736 0-4.752 1.224-1.944 1.152-3.024 3.24-1.008 2.088-1.008 4.752zm48.086.936q-5.256 0-9.36-2.376-4.032-2.448-6.336-6.624-2.304-4.248-2.304-9.72 0-5.544 2.232-9.792t6.264-6.624q4.032-2.448 9.216-2.448 5.4 0 9.288 2.304 3.888 2.232 5.976 6.264 2.16 4.032 2.16 9.648v2.664l-30.528.072.144-5.616H93.86q0-3.672-2.376-5.904-2.304-2.232-6.264-2.232-3.096 0-5.256 1.296-2.088 1.296-3.168 3.888t-1.08 6.336q0 5.76 2.448 8.712 2.52 2.952 7.416 2.952 3.6 0 5.904-1.368Q93.86 65 94.58 62.48h8.136q-1.152 5.832-5.76 9.144-4.536 3.312-11.52 3.312M122.6 38.432h22.32v7.344H122.6zm22.392-17.64v7.488h-3.024q-3.312 0-4.464 1.584-1.08 1.584-1.08 4.248V74h-8.712V34.112q0-4.896 1.584-7.848 1.584-3.024 4.464-4.392 2.88-1.44 6.696-1.44 1.08 0 2.232.072 1.224.072 2.304.288m28.214 17.64h8.784V74h-8.136l-.648-4.752q-1.584 2.52-4.752 4.104a14.9 14.9 0 0 1-6.768 1.584q-6.12 0-9.576-3.888t-3.456-10.368V38.432h8.784v19.152q0 5.04 1.944 7.272t5.616 2.232q4.176 0 6.192-2.448 2.016-2.52 2.016-7.56zm12.889 0h22.464v7.344h-22.464zM201.719 74h-8.784V27.344h8.784zm35.052-35.568h8.784V74h-8.136l-.648-4.752q-1.584 2.52-4.752 4.104a14.9 14.9 0 0 1-6.768 1.584q-6.12 0-9.576-3.888t-3.456-10.368V38.432h8.784v19.152q0 5.04 1.944 7.272t5.616 2.232q4.176 0 6.192-2.448 2.016-2.52 2.016-7.56zm38.737-.144v8.136h-3.24q-4.824 0-7.56 2.592-2.736 2.52-2.736 7.704V74h-8.784V38.504h8.28l.72 7.344h-.864q.72-3.528 3.384-5.76t6.912-2.232q.936 0 1.872.072t2.016.36m19.222 36.648q-5.256 0-9.36-2.376-4.032-2.448-6.336-6.624-2.304-4.248-2.304-9.72 0-5.544 2.232-9.792t6.264-6.624q4.032-2.448 9.216-2.448 5.4 0 9.288 2.304 3.888 2.232 5.976 6.264 2.16 4.032 2.16 9.648v2.664l-30.528.072.144-5.616h21.672q0-3.672-2.376-5.904-2.304-2.232-6.264-2.232-3.096 0-5.256 1.296-2.088 1.296-3.168 3.888t-1.08 6.336q0 5.76 2.448 8.712 2.52 2.952 7.416 2.952 3.6 0 5.904-1.368 2.376-1.368 3.096-3.888h8.136q-1.152 5.832-5.76 9.144-4.536 3.312-11.52 3.312M344.207 74h-8.784V38.432h8.136l.72 4.608q1.656-2.664 4.68-4.176 3.096-1.512 6.696-1.512 6.696 0 10.08 3.96 3.456 3.96 3.456 10.8V74h-8.784V54.2q0-4.464-2.016-6.624-2.016-2.232-5.472-2.232-4.104 0-6.408 2.592t-2.304 6.912zm48.086.936q-5.256 0-9.36-2.376-4.032-2.448-6.336-6.624-2.304-4.248-2.304-9.72 0-5.544 2.232-9.792t6.264-6.624q4.032-2.448 9.216-2.448 5.4 0 9.288 2.304 3.888 2.232 5.976 6.264 2.16 4.032 2.16 9.648v2.664l-30.528.072.144-5.616h21.672q0-3.672-2.376-5.904-2.304-2.232-6.264-2.232-3.096 0-5.256 1.296-2.088 1.296-3.168 3.888t-1.08 6.336q0 5.76 2.448 8.712 2.52 2.952 7.416 2.952 3.6 0 5.904-1.368 2.376-1.368 3.096-3.888h8.136q-1.152 5.832-5.76 9.144-4.536 3.312-11.52 3.312m38.638 0q-5.256 0-9.36-2.376-4.032-2.448-6.336-6.624-2.304-4.248-2.304-9.72 0-5.544 2.232-9.792t6.264-6.624q4.032-2.448 9.216-2.448 5.4 0 9.288 2.304 3.888 2.232 5.976 6.264 2.16 4.032 2.16 9.648v2.664l-30.528.072.144-5.616h21.672q0-3.672-2.376-5.904-2.304-2.232-6.264-2.232-3.096 0-5.256 1.296-2.088 1.296-3.168 3.888t-1.08 6.336q0 5.76 2.448 8.712 2.52 2.952 7.416 2.952 3.6 0 5.904-1.368 2.376-1.368 3.096-3.888h8.136q-1.152 5.832-5.76 9.144-4.536 3.312-11.52 3.312m37.342 0q-5.184 0-8.928-2.304-3.672-2.376-5.76-6.552-2.016-4.176-2.016-9.72t2.016-9.792q2.088-4.32 5.976-6.768t9.216-2.448q3.744 0 6.84 1.512 3.096 1.44 4.752 4.104V20.432h8.712V74h-8.064l-.576-5.544q-1.584 3.024-4.896 4.752-3.24 1.728-7.272 1.728m1.944-8.064q3.096 0 5.328-1.296 2.232-1.368 3.456-3.816 1.296-2.52 1.296-5.688 0-3.24-1.296-5.616-1.224-2.448-3.456-3.816-2.232-1.44-5.328-1.44-3.024 0-5.256 1.44-2.232 1.368-3.456 3.816-1.152 2.448-1.152 5.616t1.152 5.616q1.224 2.448 3.456 3.816t5.256 1.368m23.842-3.672h8.352q.072 2.304 1.728 3.672t4.608 1.368q3.168 0 4.752-1.152 1.656-1.152 1.656-3.096 0-1.296-.864-2.304t-3.24-1.512l-6.408-1.512q-4.824-1.08-7.2-3.456-2.304-2.448-2.304-6.696 0-3.456 1.8-5.976 1.872-2.52 5.04-3.816 3.168-1.368 7.272-1.368 3.96 0 6.984 1.44t4.68 4.032q1.728 2.592 1.8 6.048h-8.352q0-2.304-1.44-3.6-1.44-1.368-4.032-1.368t-4.032 1.152-1.44 3.096q0 2.952 4.608 4.032l6.408 1.512q4.464 1.008 6.696 3.24 2.304 2.232 2.304 6.336 0 3.6-1.872 6.264-1.872 2.592-5.256 4.032-3.384 1.368-7.776 1.368-6.624 0-10.584-3.24-3.888-3.24-3.888-8.496"/><path fill="#39ff14" d="M543.122 38.432h22.32v7.344h-22.32zm22.392-17.64v7.488h-3.024q-3.312 0-4.464 1.584-1.08 1.584-1.08 4.248V74h-8.712V34.112q0-4.896 1.584-7.848 1.584-3.024 4.464-4.392 2.88-1.44 6.696-1.44 1.08 0 2.232.072 1.224.072 2.304.288m.952 35.352q0-5.544 2.448-9.72 2.448-4.248 6.768-6.624t9.792-2.376q5.544 0 9.792 2.376 4.32 2.376 6.768 6.624 2.448 4.176 2.448 9.72t-2.448 9.792q-2.448 4.176-6.768 6.552-4.248 2.376-9.792 2.376-5.472 0-9.792-2.376t-6.768-6.552q-2.448-4.248-2.448-9.792m8.784 0q0 3.24 1.296 5.688 1.368 2.448 3.6 3.816 2.304 1.368 5.328 1.368t5.328-1.368 3.6-3.816 1.296-5.688q0-3.312-1.296-5.688-1.296-2.448-3.6-3.816t-5.328-1.368-5.328 1.368q-2.232 1.368-3.6 3.816-1.296 2.376-1.296 5.688m57.074-17.856v8.136h-3.24q-4.824 0-7.56 2.592-2.736 2.52-2.736 7.704V74h-8.784V38.504h8.28l.72 7.344h-.864q.72-3.528 3.384-5.76t6.912-2.232q.936 0 1.872.072t2.016.36M645.614 74h-8.784V38.432h8.064l1.08 6.336-1.008-.864q1.08-2.592 3.96-4.536 2.88-2.016 7.2-2.016 4.68 0 7.632 2.448 3.024 2.448 4.176 6.48h-1.44q.792-4.032 4.032-6.48 3.312-2.448 7.992-2.448 6.48 0 9.936 3.672 3.456 3.6 3.456 9.72V74h-8.712V53.048q0-3.816-1.944-5.76-1.872-2.016-5.04-2.016a7.74 7.74 0 0 0-3.744.936q-1.656.936-2.664 2.808t-1.008 4.824V74h-8.784V52.976q0-3.744-1.872-5.688t-4.968-1.944q-2.088 0-3.816.936-1.728.864-2.736 2.808-1.008 1.872-1.008 4.752zm59.383.864q-2.376 0-4.104-1.656t-1.728-4.032 1.728-4.032q1.728-1.728 4.104-1.728t4.104 1.728q1.728 1.656 1.728 4.032t-1.728 4.032-4.104 1.656"/><path fill="#0a0a0a" d="m7.776 132-6.624-22.336H4l3.168 11.168 2.4 8.448h.16l2.4-8.448 3.168-11.168h2.752L11.424 132zm21.78 0v-2.144h5.567v-18.048h-5.567v-2.144H43.38v2.144h-5.568v18.048h5.568V132zm33.715.384q-3.008 0-4.928-1.088a10.2 10.2 0 0 1-3.168-2.848l1.952-1.6q1.312 1.632 2.752 2.432 1.472.8 3.488.8 2.432 0 3.712-1.12t1.28-3.136q0-1.632-.928-2.528-.928-.928-3.232-1.312l-2.496-.416q-1.632-.288-2.752-.864-1.088-.576-1.76-1.376a5.2 5.2 0 0 1-.96-1.792 7.3 7.3 0 0 1-.288-2.048q0-3.072 2.016-4.64t5.44-1.568q2.688 0 4.512.896 1.856.896 2.976 2.528l-1.888 1.632a7.7 7.7 0 0 0-2.24-1.984q-1.312-.768-3.392-.768-2.272 0-3.488.96-1.215.96-1.216 2.88 0 1.504.896 2.464.928.928 3.296 1.344l2.4.416q1.632.288 2.752.864t1.792 1.376q.704.8.992 1.792t.288 2.08q0 3.104-2.048 4.864-2.016 1.76-5.76 1.76m20.02-.384v-2.144h5.568v-18.048H83.29v-2.144h13.824v2.144h-5.568v18.048h5.568V132zm33.779.384q-2.048 0-3.52-.768-1.472-.8-2.432-2.272t-1.408-3.616-.448-4.896q0-2.72.448-4.864.448-2.176 1.408-3.648t2.432-2.24q1.472-.8 3.52-.8t3.52.8q1.472.768 2.432 2.24.96 1.471 1.408 3.648.448 2.144.448 4.864 0 2.752-.448 4.896t-1.408 3.616-2.432 2.272q-1.472.768-3.52.768m0-2.336q1.344 0 2.272-.512a4.5 4.5 0 0 0 1.536-1.504q.607-.96.864-2.304.288-1.376.288-3.072v-3.648q0-1.664-.288-3.04-.257-1.376-.864-2.336a4.2 4.2 0 0 0-1.536-1.472q-.928-.544-2.272-.544t-2.272.544a4.2 4.2 0 0 0-1.536 1.472q-.608.96-.896 2.336a16.6 16.6 0 0 0-.256 3.04v3.648q0 1.696.256 3.072.288 1.344.896 2.304t1.536 1.504q.928.512 2.272.512m22.483-16.864h-.224V132h-2.432v-22.336h3.808l7.616 18.816h.224v-18.816h2.432V132h-3.808zm53.735 0h-.224V132h-2.432v-22.336h3.808l7.616 18.816h.224v-18.816h2.432V132h-3.808zM217.82 132v-22.336h13.76V112h-11.072v7.52h10.688v2.336h-10.688v7.808h11.072V132zm26.867 0v-22.336h13.76V112h-11.072v7.52h10.688v2.336h-10.688v7.808h11.072V132zm27.028-22.336h6.24q4.096 0 6.112 2.816t2.016 8.352-2.016 8.352-6.112 2.816h-6.24zm6.112 20q2.688 0 4.032-1.856 1.376-1.856 1.376-5.248v-3.456q0-3.392-1.376-5.248-1.344-1.856-4.032-1.856h-3.424v17.664zm27.252 2.72q-3.009 0-4.928-1.088a10.2 10.2 0 0 1-3.168-2.848l1.952-1.6q1.312 1.632 2.752 2.432 1.472.8 3.488.8 2.431 0 3.712-1.12 1.28-1.12 1.28-3.136 0-1.632-.928-2.528-.928-.928-3.232-1.312l-2.496-.416q-1.632-.288-2.752-.864-1.089-.576-1.76-1.376a5.2 5.2 0 0 1-.96-1.792 7.3 7.3 0 0 1-.288-2.048q0-3.072 2.016-4.64t5.44-1.568q2.688 0 4.512.896 1.856.896 2.976 2.528l-1.888 1.632a7.7 7.7 0 0 0-2.24-1.984q-1.313-.768-3.392-.768-2.273 0-3.488.96-1.216.96-1.216 2.88 0 1.504.896 2.464.927.928 3.296 1.344l2.4.416q1.632.288 2.752.864t1.792 1.376q.704.8.992 1.792t.288 2.08q0 3.104-2.048 4.864-2.016 1.76-5.76 1.76m53.734 0q-3.008 0-4.928-1.088a10.2 10.2 0 0 1-3.168-2.848l1.952-1.6q1.312 1.632 2.752 2.432 1.473.8 3.488.8 2.433 0 3.712-1.12t1.28-3.136q0-1.632-.928-2.528-.928-.928-3.232-1.312l-2.496-.416q-1.632-.288-2.752-.864-1.088-.576-1.76-1.376a5.2 5.2 0 0 1-.96-1.792 7.3 7.3 0 0 1-.288-2.048q0-3.072 2.016-4.64t5.44-1.568q2.688 0 4.512.896 1.857.896 2.976 2.528l-1.888 1.632a7.65 7.65 0 0 0-2.24-1.984q-1.311-.768-3.392-.768-2.271 0-3.488.96-1.215.96-1.216 2.88 0 1.504.896 2.464.929.928 3.296 1.344l2.4.416q1.633.288 2.752.864 1.12.576 1.792 1.376.704.8.992 1.792t.288 2.08q0 3.104-2.048 4.864-2.016 1.76-5.76 1.76M387.089 112v20h-2.688v-20h-7.456v-2.336h17.6V112zm21.492 20h-2.688v-22.336h8.128q3.104 0 4.736 1.696t1.632 4.736q0 2.72-1.408 4.352t-4.096 1.888l5.696 9.664h-3.008l-5.44-9.536h-3.552zm5.376-11.808q1.695 0 2.624-.832.96-.864.96-2.432v-1.664q0-1.567-.96-2.4-.929-.864-2.624-.864h-5.376v8.192zm21.171-10.528v13.408q0 1.632.096 2.912t.512 2.208a2.97 2.97 0 0 0 1.28 1.376q.896.48 2.464.48t2.432-.48a2.93 2.93 0 0 0 1.312-1.376q.416-.928.512-2.208t.096-2.912v-13.408h2.688v12.768q0 2.496-.256 4.352-.224 1.856-.992 3.104-.736 1.248-2.144 1.888-1.375.608-3.648.608-2.272 0-3.68-.608a4.87 4.87 0 0 1-2.144-1.888q-.736-1.248-.992-3.104-.224-1.856-.224-4.352v-12.768zm31.955 22.72q-4.096 0-6.112-2.976-1.983-2.976-1.984-8.576t1.984-8.576q2.016-2.976 6.112-2.976 1.537 0 2.656.416a6.1 6.1 0 0 1 1.92 1.12 6.8 6.8 0 0 1 1.344 1.6q.545.864.96 1.76l-2.304 1.056a9 9 0 0 0-.672-1.376 4.5 4.5 0 0 0-.928-1.152 3.6 3.6 0 0 0-1.248-.8q-.704-.288-1.728-.288-2.655 0-3.968 2.016-1.28 2.016-1.28 5.376v3.648q0 3.36 1.28 5.376 1.313 2.016 3.968 2.016 1.024 0 1.728-.288a3.9 3.9 0 0 0 1.248-.768 5.3 5.3 0 0 0 .928-1.152q.384-.672.672-1.408l2.304 1.056a14 14 0 0 1-.96 1.792 7.1 7.1 0 0 1-1.344 1.568 6.1 6.1 0 0 1-1.92 1.12q-1.12.416-2.656.416M494.559 112v20h-2.688v-20h-7.456v-2.336h17.6V112zm21.171-2.336v13.408q0 1.632.096 2.912t.512 2.208a2.97 2.97 0 0 0 1.28 1.376q.897.48 2.464.48 1.568 0 2.432-.48a2.93 2.93 0 0 0 1.312-1.376q.417-.928.512-2.208t.096-2.912v-13.408h2.688v12.768q0 2.496-.256 4.352-.224 1.856-.992 3.104-.735 1.248-2.144 1.888-1.376.608-3.648.608-2.271 0-3.68-.608a4.87 4.87 0 0 1-2.144-1.888q-.735-1.248-.992-3.104-.224-1.856-.224-4.352v-12.768zM542.918 132h-2.688v-22.336h8.128q3.104 0 4.736 1.696t1.632 4.736q0 2.72-1.408 4.352t-4.096 1.888l5.696 9.664h-3.008l-5.44-9.536h-3.552zm5.376-11.808q1.696 0 2.624-.832.96-.864.96-2.432v-1.664q0-1.567-.96-2.4-.928-.864-2.624-.864h-5.376v8.192zM567.097 132v-22.336h13.76V112h-11.072v7.52h10.688v2.336h-10.688v7.808h11.072V132zm33.588.288q-1.312 0-1.856-.544-.512-.544-.512-1.376v-.576q0-.832.512-1.376.544-.544 1.856-.544t1.824.544q.544.544.544 1.376v.576q0 .832-.544 1.376-.511.544-1.824.544"/></svg>