<svg xmlns="http://www.w3.org/2000/svg" width="716" height="166" viewBox="0 0 716 166" fill="none">
<path d="M2.008 38.432H24.472V45.776H2.008V38.432ZM17.632 74H8.848V27.344H17.632V74ZM37.3487 74H28.5647V20.432H37.4207V43.04C38.5247 41.312 40.0607 39.944 42.0287 38.936C44.0448 37.88 46.3488 37.352 48.9408 37.352C53.3088 37.352 56.6208 38.672 58.8768 41.312C61.1808 43.952 62.3327 47.552 62.3327 52.112V74H53.5488V54.2C53.5488 52.184 53.2368 50.528 52.6128 49.232C51.9887 47.936 51.1248 46.976 50.0208 46.352C48.9168 45.68 47.6208 45.344 46.1328 45.344C44.3088 45.344 42.7248 45.752 41.3808 46.568C40.0848 47.336 39.0768 48.416 38.3568 49.808C37.6847 51.2 37.3487 52.784 37.3487 54.56V74ZM85.4352 74.936C81.9312 74.936 78.8112 74.144 76.0752 72.56C73.3872 70.928 71.2752 68.72 69.7392 65.936C68.2032 63.104 67.4352 59.864 67.4352 56.216C67.4352 52.52 68.1792 49.256 69.6672 46.424C71.1552 43.592 73.2432 41.384 75.9312 39.8C78.6192 38.168 81.6912 37.352 85.1472 37.352C88.7472 37.352 91.8432 38.12 94.4352 39.656C97.0272 41.144 99.0192 43.232 100.411 45.92C101.851 48.608 102.571 51.824 102.571 55.568V58.232L72.0432 58.304L72.1872 52.688H93.8592C93.8592 50.24 93.0672 48.272 91.4832 46.784C89.9472 45.296 87.8592 44.552 85.2192 44.552C83.1552 44.552 81.4032 44.984 79.9632 45.848C78.5712 46.712 77.5152 48.008 76.7952 49.736C76.0752 51.464 75.7152 53.576 75.7152 56.072C75.7152 59.912 76.5312 62.816 78.1632 64.784C79.8432 66.752 82.3152 67.736 85.5792 67.736C87.9792 67.736 89.9472 67.28 91.4832 66.368C93.0672 65.456 94.0992 64.16 94.5792 62.48H102.715C101.947 66.368 100.027 69.416 96.9552 71.624C93.9312 73.832 90.0912 74.936 85.4352 74.936ZM122.6 38.432H144.92V45.776H122.6V38.432ZM144.992 20.792V28.28C144.512 28.28 144.008 28.28 143.48 28.28C143 28.28 142.496 28.28 141.968 28.28C139.76 28.28 138.272 28.808 137.504 29.864C136.784 30.92 136.424 32.336 136.424 34.112V74H127.712V34.112C127.712 30.848 128.24 28.232 129.296 26.264C130.352 24.248 131.84 22.784 133.76 21.872C135.68 20.912 137.912 20.432 140.456 20.432C141.176 20.432 141.92 20.456 142.688 20.504C143.504 20.552 144.272 20.648 144.992 20.792ZM173.206 38.432H181.99V74H173.854L173.206 69.248C172.15 70.928 170.566 72.296 168.454 73.352C166.342 74.408 164.086 74.936 161.686 74.936C157.606 74.936 154.414 73.64 152.11 71.048C149.806 68.456 148.654 65 148.654 60.68V38.432H157.438V57.584C157.438 60.944 158.086 63.368 159.382 64.856C160.678 66.344 162.55 67.088 164.998 67.088C167.782 67.088 169.846 66.272 171.19 64.64C172.534 62.96 173.206 60.44 173.206 57.08V38.432ZM186.095 38.432H208.559V45.776H186.095V38.432ZM201.719 74H192.935V27.344H201.719V74ZM236.771 38.432H245.555V74H237.419L236.771 69.248C235.715 70.928 234.131 72.296 232.019 73.352C229.907 74.408 227.651 74.936 225.251 74.936C221.171 74.936 217.979 73.64 215.675 71.048C213.371 68.456 212.219 65 212.219 60.68V38.432H221.003V57.584C221.003 60.944 221.651 63.368 222.947 64.856C224.243 66.344 226.115 67.088 228.563 67.088C231.347 67.088 233.411 66.272 234.755 64.64C236.099 62.96 236.771 60.44 236.771 57.08V38.432ZM275.508 38.288V46.424H272.268C269.052 46.424 266.532 47.288 264.708 49.016C262.884 50.696 261.972 53.264 261.972 56.72V74H253.188V38.504H261.468L262.188 45.848H261.324C261.804 43.496 262.932 41.576 264.708 40.088C266.484 38.6 268.788 37.856 271.62 37.856C272.244 37.856 272.868 37.88 273.492 37.928C274.116 37.976 274.788 38.096 275.508 38.288ZM294.73 74.936C291.226 74.936 288.106 74.144 285.37 72.56C282.682 70.928 280.57 68.72 279.034 65.936C277.498 63.104 276.73 59.864 276.73 56.216C276.73 52.52 277.474 49.256 278.962 46.424C280.45 43.592 282.538 41.384 285.226 39.8C287.914 38.168 290.986 37.352 294.442 37.352C298.042 37.352 301.138 38.12 303.73 39.656C306.322 41.144 308.314 43.232 309.706 45.92C311.146 48.608 311.866 51.824 311.866 55.568V58.232L281.338 58.304L281.482 52.688H303.154C303.154 50.24 302.362 48.272 300.778 46.784C299.242 45.296 297.154 44.552 294.514 44.552C292.45 44.552 290.698 44.984 289.258 45.848C287.866 46.712 286.81 48.008 286.09 49.736C285.37 51.464 285.01 53.576 285.01 56.072C285.01 59.912 285.826 62.816 287.458 64.784C289.138 66.752 291.61 67.736 294.874 67.736C297.274 67.736 299.242 67.28 300.778 66.368C302.362 65.456 303.394 64.16 303.874 62.48H312.01C311.242 66.368 309.322 69.416 306.25 71.624C303.226 73.832 299.386 74.936 294.73 74.936ZM344.207 74H335.423V38.432H343.559L344.279 43.04C345.383 41.264 346.943 39.872 348.959 38.864C351.023 37.856 353.255 37.352 355.655 37.352C360.119 37.352 363.479 38.672 365.735 41.312C368.039 43.952 369.191 47.552 369.191 52.112V74H360.407V54.2C360.407 51.224 359.735 49.016 358.391 47.576C357.047 46.088 355.223 45.344 352.919 45.344C350.183 45.344 348.047 46.208 346.511 47.936C344.975 49.664 344.207 51.968 344.207 54.848V74ZM392.293 74.936C388.789 74.936 385.669 74.144 382.933 72.56C380.245 70.928 378.133 68.72 376.597 65.936C375.061 63.104 374.293 59.864 374.293 56.216C374.293 52.52 375.037 49.256 376.525 46.424C378.013 43.592 380.101 41.384 382.789 39.8C385.477 38.168 388.549 37.352 392.005 37.352C395.605 37.352 398.701 38.12 401.293 39.656C403.885 41.144 405.877 43.232 407.269 45.92C408.709 48.608 409.429 51.824 409.429 55.568V58.232L378.901 58.304L379.045 52.688H400.717C400.717 50.24 399.925 48.272 398.341 46.784C396.805 45.296 394.717 44.552 392.077 44.552C390.013 44.552 388.261 44.984 386.821 45.848C385.429 46.712 384.373 48.008 383.653 49.736C382.933 51.464 382.573 53.576 382.573 56.072C382.573 59.912 383.389 62.816 385.021 64.784C386.701 66.752 389.173 67.736 392.437 67.736C394.837 67.736 396.805 67.28 398.341 66.368C399.925 65.456 400.957 64.16 401.437 62.48H409.573C408.805 66.368 406.885 69.416 403.813 71.624C400.789 73.832 396.949 74.936 392.293 74.936ZM430.931 74.936C427.427 74.936 424.307 74.144 421.571 72.56C418.883 70.928 416.771 68.72 415.235 65.936C413.699 63.104 412.931 59.864 412.931 56.216C412.931 52.52 413.675 49.256 415.163 46.424C416.651 43.592 418.739 41.384 421.427 39.8C424.115 38.168 427.187 37.352 430.643 37.352C434.243 37.352 437.339 38.12 439.931 39.656C442.523 41.144 444.515 43.232 445.907 45.92C447.347 48.608 448.067 51.824 448.067 55.568V58.232L417.539 58.304L417.683 52.688H439.355C439.355 50.24 438.563 48.272 436.979 46.784C435.443 45.296 433.355 44.552 430.715 44.552C428.651 44.552 426.899 44.984 425.459 45.848C424.067 46.712 423.011 48.008 422.291 49.736C421.571 51.464 421.211 53.576 421.211 56.072C421.211 59.912 422.027 62.816 423.659 64.784C425.339 66.752 427.811 67.736 431.075 67.736C433.475 67.736 435.443 67.28 436.979 66.368C438.563 65.456 439.595 64.16 440.075 62.48H448.211C447.443 66.368 445.523 69.416 442.451 71.624C439.427 73.832 435.587 74.936 430.931 74.936ZM468.273 74.936C464.817 74.936 461.841 74.168 459.345 72.632C456.897 71.048 454.977 68.864 453.585 66.08C452.241 63.296 451.569 60.056 451.569 56.36C451.569 52.664 452.241 49.4 453.585 46.568C454.977 43.688 456.969 41.432 459.561 39.8C462.153 38.168 465.225 37.352 468.777 37.352C471.273 37.352 473.553 37.856 475.617 38.864C477.681 39.824 479.265 41.192 480.369 42.968V20.432H489.081V74H481.017L480.441 68.456C479.385 70.472 477.753 72.056 475.545 73.208C473.385 74.36 470.961 74.936 468.273 74.936ZM470.217 66.872C472.281 66.872 474.057 66.44 475.545 65.576C477.033 64.664 478.185 63.392 479.001 61.76C479.865 60.08 480.297 58.184 480.297 56.072C480.297 53.912 479.865 52.04 479.001 50.456C478.185 48.824 477.033 47.552 475.545 46.64C474.057 45.68 472.281 45.2 470.217 45.2C468.201 45.2 466.449 45.68 464.961 46.64C463.473 47.552 462.321 48.824 461.505 50.456C460.737 52.088 460.353 53.96 460.353 56.072C460.353 58.184 460.737 60.056 461.505 61.688C462.321 63.32 463.473 64.592 464.961 65.504C466.449 66.416 468.201 66.872 470.217 66.872ZM494.059 63.2H502.411C502.459 64.736 503.035 65.96 504.139 66.872C505.243 67.784 506.779 68.24 508.747 68.24C510.859 68.24 512.443 67.856 513.499 67.088C514.603 66.32 515.155 65.288 515.155 63.992C515.155 63.128 514.867 62.36 514.291 61.688C513.715 61.016 512.635 60.512 511.051 60.176L504.643 58.664C501.427 57.944 499.027 56.792 497.443 55.208C495.907 53.576 495.139 51.344 495.139 48.512C495.139 46.208 495.739 44.216 496.939 42.536C498.187 40.856 499.867 39.584 501.979 38.72C504.091 37.808 506.515 37.352 509.251 37.352C511.891 37.352 514.219 37.832 516.235 38.792C518.251 39.752 519.811 41.096 520.915 42.824C522.067 44.552 522.667 46.568 522.715 48.872H514.363C514.363 47.336 513.883 46.136 512.923 45.272C511.963 44.36 510.619 43.904 508.891 43.904C507.163 43.904 505.819 44.288 504.859 45.056C503.899 45.824 503.419 46.856 503.419 48.152C503.419 50.12 504.955 51.464 508.027 52.184L514.435 53.696C517.411 54.368 519.643 55.448 521.131 56.936C522.667 58.424 523.435 60.536 523.435 63.272C523.435 65.672 522.811 67.76 521.563 69.536C520.315 71.264 518.563 72.608 516.307 73.568C514.051 74.48 511.459 74.936 508.531 74.936C504.115 74.936 500.587 73.856 497.947 71.696C495.355 69.536 494.059 66.704 494.059 63.2Z" fill="#0A0A0A"/>
<path d="M543.122 38.432H565.442V45.776H543.122V38.432ZM565.514 20.792V28.28C565.034 28.28 564.53 28.28 564.002 28.28C563.522 28.28 563.018 28.28 562.49 28.28C560.282 28.28 558.794 28.808 558.026 29.864C557.306 30.92 556.946 32.336 556.946 34.112V74H548.234V34.112C548.234 30.848 548.762 28.232 549.818 26.264C550.874 24.248 552.362 22.784 554.282 21.872C556.202 20.912 558.434 20.432 560.978 20.432C561.698 20.432 562.442 20.456 563.21 20.504C564.026 20.552 564.794 20.648 565.514 20.792ZM566.466 56.144C566.466 52.448 567.282 49.208 568.914 46.424C570.546 43.592 572.802 41.384 575.682 39.8C578.562 38.216 581.826 37.424 585.474 37.424C589.17 37.424 592.434 38.216 595.266 39.8C598.146 41.384 600.402 43.592 602.034 46.424C603.666 49.208 604.482 52.448 604.482 56.144C604.482 59.84 603.666 63.104 602.034 65.936C600.402 68.72 598.146 70.904 595.266 72.488C592.434 74.072 589.17 74.864 585.474 74.864C581.826 74.864 578.562 74.072 575.682 72.488C572.802 70.904 570.546 68.72 568.914 65.936C567.282 63.104 566.466 59.84 566.466 56.144ZM575.25 56.144C575.25 58.304 575.682 60.2 576.546 61.832C577.458 63.464 578.658 64.736 580.146 65.648C581.682 66.56 583.458 67.016 585.474 67.016C587.49 67.016 589.266 66.56 590.802 65.648C592.338 64.736 593.538 63.464 594.402 61.832C595.266 60.2 595.698 58.304 595.698 56.144C595.698 53.936 595.266 52.04 594.402 50.456C593.538 48.824 592.338 47.552 590.802 46.64C589.266 45.728 587.49 45.272 585.474 45.272C583.458 45.272 581.682 45.728 580.146 46.64C578.658 47.552 577.458 48.824 576.546 50.456C575.682 52.04 575.25 53.936 575.25 56.144ZM632.324 38.288V46.424H629.084C625.868 46.424 623.348 47.288 621.524 49.016C619.7 50.696 618.788 53.264 618.788 56.72V74H610.004V38.504H618.284L619.004 45.848H618.14C618.62 43.496 619.748 41.576 621.524 40.088C623.3 38.6 625.604 37.856 628.436 37.856C629.06 37.856 629.684 37.88 630.308 37.928C630.932 37.976 631.604 38.096 632.324 38.288ZM645.614 74H636.83V38.432H644.894L645.974 44.768L644.966 43.904C645.686 42.176 647.006 40.664 648.926 39.368C650.846 38.024 653.246 37.352 656.126 37.352C659.246 37.352 661.79 38.168 663.758 39.8C665.774 41.432 667.166 43.592 667.934 46.28H666.494C667.022 43.592 668.366 41.432 670.526 39.8C672.734 38.168 675.398 37.352 678.518 37.352C682.838 37.352 686.15 38.576 688.454 41.024C690.758 43.424 691.91 46.664 691.91 50.744V74H683.198V53.048C683.198 50.504 682.55 48.584 681.254 47.288C680.006 45.944 678.326 45.272 676.214 45.272C674.87 45.272 673.622 45.584 672.47 46.208C671.366 46.832 670.478 47.768 669.806 49.016C669.134 50.264 668.798 51.872 668.798 53.84V74H660.014V52.976C660.014 50.48 659.39 48.584 658.142 47.288C656.894 45.992 655.238 45.344 653.174 45.344C651.782 45.344 650.51 45.656 649.358 46.28C648.206 46.856 647.294 47.792 646.622 49.088C645.95 50.336 645.614 51.92 645.614 53.84V74ZM704.997 74.864C703.413 74.864 702.045 74.312 700.893 73.208C699.741 72.104 699.165 70.76 699.165 69.176C699.165 67.592 699.741 66.248 700.893 65.144C702.045 63.992 703.413 63.416 704.997 63.416C706.581 63.416 707.949 63.992 709.101 65.144C710.253 66.248 710.829 67.592 710.829 69.176C710.829 70.76 710.253 72.104 709.101 73.208C707.949 74.312 706.581 74.864 704.997 74.864Z" fill="#39FF14"/>
<path d="M7.776 132L1.152 109.664H4L7.168 120.832L9.568 129.28H9.728L12.128 120.832L15.296 109.664H18.048L11.424 132H7.776ZM29.5555 132V129.856H35.1235V111.808H29.5555V109.664H43.3795V111.808H37.8115V129.856H43.3795V132H29.5555ZM63.271 132.384C61.2657 132.384 59.623 132.021 58.343 131.296C57.063 130.549 56.007 129.6 55.175 128.448L57.127 126.848C58.0017 127.936 58.919 128.747 59.879 129.28C60.8603 129.813 62.023 130.08 63.367 130.08C64.9883 130.08 66.2257 129.707 67.079 128.96C67.9323 128.213 68.359 127.168 68.359 125.824C68.359 124.736 68.0497 123.893 67.431 123.296C66.8123 122.677 65.735 122.24 64.199 121.984L61.703 121.568C60.615 121.376 59.6977 121.088 58.951 120.704C58.2257 120.32 57.639 119.861 57.191 119.328C56.743 118.773 56.423 118.176 56.231 117.536C56.039 116.875 55.943 116.192 55.943 115.488C55.943 113.44 56.615 111.893 57.959 110.848C59.303 109.803 61.1163 109.28 63.399 109.28C65.191 109.28 66.695 109.579 67.911 110.176C69.1483 110.773 70.1403 111.616 70.887 112.704L68.999 114.336C68.3803 113.525 67.6337 112.864 66.759 112.352C65.8843 111.84 64.7537 111.584 63.367 111.584C61.8523 111.584 60.6897 111.904 59.879 112.544C59.0683 113.184 58.663 114.144 58.663 115.424C58.663 116.427 58.9617 117.248 59.559 117.888C60.1777 118.507 61.2763 118.955 62.855 119.232L65.255 119.648C66.343 119.84 67.2603 120.128 68.007 120.512C68.7537 120.896 69.351 121.355 69.799 121.888C70.2683 122.421 70.599 123.019 70.791 123.68C70.983 124.341 71.079 125.035 71.079 125.76C71.079 127.829 70.3963 129.451 69.031 130.624C67.687 131.797 65.767 132.384 63.271 132.384ZM83.2905 132V129.856H88.8585V111.808H83.2905V109.664H97.1145V111.808H91.5465V129.856H97.1145V132H83.2905ZM117.07 132.384C115.705 132.384 114.531 132.128 113.55 131.616C112.569 131.083 111.758 130.325 111.118 129.344C110.478 128.363 110.009 127.157 109.71 125.728C109.411 124.299 109.262 122.667 109.262 120.832C109.262 119.019 109.411 117.397 109.71 115.968C110.009 114.517 110.478 113.301 111.118 112.32C111.758 111.339 112.569 110.592 113.55 110.08C114.531 109.547 115.705 109.28 117.07 109.28C118.435 109.28 119.609 109.547 120.59 110.08C121.571 110.592 122.382 111.339 123.022 112.32C123.662 113.301 124.131 114.517 124.43 115.968C124.729 117.397 124.878 119.019 124.878 120.832C124.878 122.667 124.729 124.299 124.43 125.728C124.131 127.157 123.662 128.363 123.022 129.344C122.382 130.325 121.571 131.083 120.59 131.616C119.609 132.128 118.435 132.384 117.07 132.384ZM117.07 130.048C117.966 130.048 118.723 129.877 119.342 129.536C119.961 129.173 120.473 128.672 120.878 128.032C121.283 127.392 121.571 126.624 121.742 125.728C121.934 124.811 122.03 123.787 122.03 122.656V119.008C122.03 117.899 121.934 116.885 121.742 115.968C121.571 115.051 121.283 114.272 120.878 113.632C120.473 112.992 119.961 112.501 119.342 112.16C118.723 111.797 117.966 111.616 117.07 111.616C116.174 111.616 115.417 111.797 114.798 112.16C114.179 112.501 113.667 112.992 113.262 113.632C112.857 114.272 112.558 115.051 112.366 115.968C112.195 116.885 112.11 117.899 112.11 119.008V122.656C112.11 123.787 112.195 124.811 112.366 125.728C112.558 126.624 112.857 127.392 113.262 128.032C113.667 128.672 114.179 129.173 114.798 129.536C115.417 129.877 116.174 130.048 117.07 130.048ZM139.553 113.184H139.329V132H136.897V109.664H140.705L148.321 128.48H148.545V109.664H150.977V132H147.169L139.553 113.184ZM193.288 113.184H193.064V132H190.632V109.664H194.44L202.056 128.48H202.28V109.664H204.712V132H200.904L193.288 113.184ZM217.82 132V109.664H231.58V112H220.508V119.52H231.196V121.856H220.508V129.664H231.58V132H217.82ZM244.687 132V109.664H258.447V112H247.375V119.52H258.063V121.856H247.375V129.664H258.447V132H244.687ZM271.715 109.664H277.955C280.686 109.664 282.723 110.603 284.067 112.48C285.411 114.357 286.083 117.141 286.083 120.832C286.083 124.523 285.411 127.307 284.067 129.184C282.723 131.061 280.686 132 277.955 132H271.715V109.664ZM277.827 129.664C279.619 129.664 280.963 129.045 281.859 127.808C282.776 126.571 283.235 124.821 283.235 122.56V119.104C283.235 116.843 282.776 115.093 281.859 113.856C280.963 112.619 279.619 112 277.827 112H274.403V129.664H277.827ZM305.079 132.384C303.073 132.384 301.431 132.021 300.151 131.296C298.871 130.549 297.815 129.6 296.983 128.448L298.935 126.848C299.809 127.936 300.727 128.747 301.687 129.28C302.668 129.813 303.831 130.08 305.175 130.08C306.796 130.08 308.033 129.707 308.887 128.96C309.74 128.213 310.167 127.168 310.167 125.824C310.167 124.736 309.857 123.893 309.239 123.296C308.62 122.677 307.543 122.24 306.007 121.984L303.511 121.568C302.423 121.376 301.505 121.088 300.759 120.704C300.033 120.32 299.447 119.861 298.999 119.328C298.551 118.773 298.231 118.176 298.039 117.536C297.847 116.875 297.751 116.192 297.751 115.488C297.751 113.44 298.423 111.893 299.767 110.848C301.111 109.803 302.924 109.28 305.207 109.28C306.999 109.28 308.503 109.579 309.719 110.176C310.956 110.773 311.948 111.616 312.695 112.704L310.807 114.336C310.188 113.525 309.441 112.864 308.567 112.352C307.692 111.84 306.561 111.584 305.175 111.584C303.66 111.584 302.497 111.904 301.687 112.544C300.876 113.184 300.471 114.144 300.471 115.424C300.471 116.427 300.769 117.248 301.367 117.888C301.985 118.507 303.084 118.955 304.663 119.232L307.063 119.648C308.151 119.84 309.068 120.128 309.815 120.512C310.561 120.896 311.159 121.355 311.607 121.888C312.076 122.421 312.407 123.019 312.599 123.68C312.791 124.341 312.887 125.035 312.887 125.76C312.887 127.829 312.204 129.451 310.839 130.624C309.495 131.797 307.575 132.384 305.079 132.384ZM358.813 132.384C356.808 132.384 355.165 132.021 353.885 131.296C352.605 130.549 351.549 129.6 350.717 128.448L352.669 126.848C353.544 127.936 354.461 128.747 355.421 129.28C356.403 129.813 357.565 130.08 358.909 130.08C360.531 130.08 361.768 129.707 362.621 128.96C363.475 128.213 363.901 127.168 363.901 125.824C363.901 124.736 363.592 123.893 362.973 123.296C362.355 122.677 361.277 122.24 359.741 121.984L357.245 121.568C356.157 121.376 355.24 121.088 354.493 120.704C353.768 120.32 353.181 119.861 352.733 119.328C352.285 118.773 351.965 118.176 351.773 117.536C351.581 116.875 351.485 116.192 351.485 115.488C351.485 113.44 352.157 111.893 353.501 110.848C354.845 109.803 356.659 109.28 358.941 109.28C360.733 109.28 362.237 109.579 363.453 110.176C364.691 110.773 365.683 111.616 366.429 112.704L364.541 114.336C363.923 113.525 363.176 112.864 362.301 112.352C361.427 111.84 360.296 111.584 358.909 111.584C357.395 111.584 356.232 111.904 355.421 112.544C354.611 113.184 354.205 114.144 354.205 115.424C354.205 116.427 354.504 117.248 355.101 117.888C355.72 118.507 356.819 118.955 358.397 119.232L360.797 119.648C361.885 119.84 362.803 120.128 363.549 120.512C364.296 120.896 364.893 121.355 365.341 121.888C365.811 122.421 366.141 123.019 366.333 123.68C366.525 124.341 366.621 125.035 366.621 125.76C366.621 127.829 365.939 129.451 364.573 130.624C363.229 131.797 361.309 132.384 358.813 132.384ZM387.089 112V132H384.401V112H376.945V109.664H394.545V112H387.089ZM408.581 132H405.893V109.664H414.021C416.09 109.664 417.669 110.229 418.757 111.36C419.845 112.491 420.389 114.069 420.389 116.096C420.389 117.909 419.919 119.36 418.981 120.448C418.042 121.536 416.677 122.165 414.885 122.336L420.581 132H417.573L412.133 122.464H408.581V132ZM413.957 120.192C415.087 120.192 415.962 119.915 416.581 119.36C417.221 118.784 417.541 117.973 417.541 116.928V115.264C417.541 114.219 417.221 113.419 416.581 112.864C415.962 112.288 415.087 112 413.957 112H408.581V120.192H413.957ZM435.128 109.664V123.072C435.128 124.16 435.16 125.131 435.224 125.984C435.288 126.837 435.459 127.573 435.736 128.192C436.013 128.789 436.44 129.248 437.016 129.568C437.613 129.888 438.435 130.048 439.48 130.048C440.525 130.048 441.336 129.888 441.912 129.568C442.509 129.248 442.947 128.789 443.224 128.192C443.501 127.573 443.672 126.837 443.736 125.984C443.8 125.131 443.832 124.16 443.832 123.072V109.664H446.52V122.432C446.52 124.096 446.435 125.547 446.264 126.784C446.115 128.021 445.784 129.056 445.272 129.888C444.781 130.72 444.067 131.349 443.128 131.776C442.211 132.181 440.995 132.384 439.48 132.384C437.965 132.384 436.739 132.181 435.8 131.776C434.883 131.349 434.168 130.72 433.656 129.888C433.165 129.056 432.835 128.021 432.664 126.784C432.515 125.547 432.44 124.096 432.44 122.432V109.664H435.128ZM467.083 132.384C464.353 132.384 462.315 131.392 460.971 129.408C459.649 127.424 458.987 124.565 458.987 120.832C458.987 117.099 459.649 114.24 460.971 112.256C462.315 110.272 464.353 109.28 467.083 109.28C468.107 109.28 468.993 109.419 469.739 109.696C470.486 109.973 471.126 110.347 471.659 110.816C472.193 111.285 472.641 111.819 473.003 112.416C473.366 112.992 473.686 113.579 473.963 114.176L471.659 115.232C471.467 114.741 471.243 114.283 470.987 113.856C470.731 113.408 470.422 113.024 470.059 112.704C469.718 112.363 469.302 112.096 468.811 111.904C468.342 111.712 467.766 111.616 467.083 111.616C465.313 111.616 463.99 112.288 463.115 113.632C462.262 114.976 461.835 116.768 461.835 119.008V122.656C461.835 124.896 462.262 126.688 463.115 128.032C463.99 129.376 465.313 130.048 467.083 130.048C467.766 130.048 468.342 129.952 468.811 129.76C469.302 129.568 469.718 129.312 470.059 128.992C470.422 128.651 470.731 128.267 470.987 127.84C471.243 127.392 471.467 126.923 471.659 126.432L473.963 127.488C473.686 128.107 473.366 128.704 473.003 129.28C472.641 129.856 472.193 130.379 471.659 130.848C471.126 131.317 470.486 131.691 469.739 131.968C468.993 132.245 468.107 132.384 467.083 132.384ZM494.559 112V132H491.871V112H484.415V109.664H502.015V112H494.559ZM515.73 109.664V123.072C515.73 124.16 515.762 125.131 515.826 125.984C515.89 126.837 516.061 127.573 516.338 128.192C516.616 128.789 517.042 129.248 517.618 129.568C518.216 129.888 519.037 130.048 520.082 130.048C521.128 130.048 521.938 129.888 522.514 129.568C523.112 129.248 523.549 128.789 523.826 128.192C524.104 127.573 524.274 126.837 524.338 125.984C524.402 125.131 524.434 124.16 524.434 123.072V109.664H527.122V122.432C527.122 124.096 527.037 125.547 526.866 126.784C526.717 128.021 526.386 129.056 525.874 129.888C525.384 130.72 524.669 131.349 523.73 131.776C522.813 132.181 521.597 132.384 520.082 132.384C518.568 132.384 517.341 132.181 516.402 131.776C515.485 131.349 514.77 130.72 514.258 129.888C513.768 129.056 513.437 128.021 513.266 126.784C513.117 125.547 513.042 124.096 513.042 122.432V109.664H515.73ZM542.918 132H540.23V109.664H548.358C550.427 109.664 552.006 110.229 553.094 111.36C554.182 112.491 554.726 114.069 554.726 116.096C554.726 117.909 554.257 119.36 553.318 120.448C552.379 121.536 551.014 122.165 549.222 122.336L554.918 132H551.91L546.47 122.464H542.918V132ZM548.294 120.192C549.425 120.192 550.299 119.915 550.918 119.36C551.558 118.784 551.878 117.973 551.878 116.928V115.264C551.878 114.219 551.558 113.419 550.918 112.864C550.299 112.288 549.425 112 548.294 112H542.918V120.192H548.294ZM567.097 132V109.664H580.857V112H569.785V119.52H580.473V121.856H569.785V129.664H580.857V132H567.097ZM600.685 132.288C599.81 132.288 599.192 132.107 598.829 131.744C598.488 131.381 598.317 130.923 598.317 130.368V129.792C598.317 129.237 598.488 128.779 598.829 128.416C599.192 128.053 599.81 127.872 600.685 127.872C601.56 127.872 602.168 128.053 602.509 128.416C602.872 128.779 603.053 129.237 603.053 129.792V130.368C603.053 130.923 602.872 131.381 602.509 131.744C602.168 132.107 601.56 132.288 600.685 132.288Z" fill="#0A0A0A"/>
</svg>