<svg xmlns="http://www.w3.org/2000/svg" width="2563" height="1250" viewBox="0 0 2563 1250" fill="none">
<rect x="2473" y="861" width="90" height="90" fill="#39FF14"/>
<path d="M230 386V454H447V493H230V951H184V493H32V454H184V381C184 281 237 229 338 229C383 229 424 240 461 261L446 298C412 280 378 271 341 271C266 271 230 309 230 386ZM781.727 963C619.727 963 507.727 857 507.727 702C507.727 548 619.727 442 781.727 442C944.727 442 1055.73 548 1055.73 702C1055.73 857 944.727 963 781.727 963ZM781.727 921C916.727 921 1008.73 832 1008.73 702C1008.73 573 916.727 483 781.727 483C647.727 483 555.727 573 555.727 702C555.727 832 647.727 921 781.727 921ZM1470.77 442C1485.77 442 1500.77 443 1510.77 445L1508.77 491C1496.77 489 1478.77 488 1464.77 488C1373.77 488 1297.77 528 1231.77 610V951H1185.77V454H1231.77V567C1294.77 485 1372.77 442 1470.77 442ZM2227.98 442C2336.98 442 2396.98 513 2396.98 637V951H2350.98V643C2350.98 541 2305.98 483 2216.98 483C2141.98 483 2079.98 522 2025.98 593C2027.98 607 2028.98 622 2028.98 637V951H1982.98V643C1982.98 541 1936.98 483 1851.98 483C1777.98 483 1713.98 526 1660.98 603V951H1614.98V454H1660.98V559C1717.98 481 1784.98 442 1862.98 442C1942.98 442 1997.98 484 2018.98 559C2072.98 487 2140.98 442 2227.98 442Z" fill="#0A0A0A"/>
</svg>